<?xml version="1.0" encoding="utf-8"?>
<!-- Generator: Adobe Illustrator 23.0.1, SVG Export Plug-In . SVG Version: 6.00 Build 0)  -->
<svg version="1.1" xmlns="http://www.w3.org/2000/svg" xmlns:xlink="http://www.w3.org/1999/xlink" x="0px" y="0px"
	 viewBox="0 0 100 100" style="enable-background:new 0 0 100 100;" xml:space="preserve">
<style type="text/css">
	.st0{display:none;}
	.st1{display:inline;}
	.st2{fill:#0CB315;}
	.st3{enable-background:new    ;}
	.st4{clip-path:url(#SVGID_2_);}
	.st5{fill:#FFFFFF;}
</style>
<g id="Layer_1" class="st0">
	<g>
		<g class="st1">
			<g id="XMLID_11_">
				<g>
					<path class="st2" d="M82.5,48.7c8.2,0.4,14.7,7.2,14.7,15.5c0,8.5-6.9,15.5-15.5,15.5c-8.5,0-15.5-6.9-15.5-15.5
						c0-8.3,6.5-15,14.7-15.5V24.4v-1.5h6.7v1.5h-5.2L82.5,48.7L82.5,48.7z"/>
					<path class="st2" d="M60.6,31.9V10.6h-4.1v11.6h-1.5V10.8h-4.1v11.5h-1.5V10.8h-4.1v17h-1.5v-17h-5v25.7h5.8V38h-5.8v46.1h17.7
						V45.3L60.6,31.9z M19,24.4v24.3c8.2,0.4,14.7,7.2,14.7,15.5c0,8.5-6.9,15.5-15.5,15.5c-8.5,0-15.5-6.9-15.5-15.5
						c0-8.3,6.5-15,14.7-15.5V24.4h-5.6v-1.5H37V9.3h7.3h0.8H50h0.8h4.9V9.1h6.4v13.8H81v1.5H62.1v7.7l-4.3,13.4v40.1H37V38v-0.8
						V24.4H19z"/>
				</g>
			</g>
		</g>
	</g>
	<g id="Layer_4">
		<g class="st1">
			<path class="st2" d="M60.8,22l-0.5,0.7l-24.6,6.5L21,50l-0.8,0.2l18.5,26.6l26.5-6.7l-0.3-0.5l14.5-21.1L60.8,22z M36.7,30.6
				L59,24.6L45.9,43.8l-22.5,5.6L36.7,30.6z M39.4,75L22.8,51.2L46,45.4l16.6,23.8L39.4,75z"/>
			<path class="st2" d="M65.1,11.3V3.9H49.4v15.7h15.7v-6.7c16.3,5.9,27.2,21.4,27.2,38.8C92.4,69.6,81,85.3,64.1,91l0.5,1.5
				c17.5-5.9,29.3-22.2,29.3-40.7C93.9,33.5,82.4,17.3,65.1,11.3z M63.6,18.1H51V5.5h12.5C63.6,5.5,63.6,18.1,63.6,18.1z"/>
			<path class="st2" d="M35.2,87.1C18.8,81.1,7.9,65.7,7.9,48.2C7.9,30.4,19.3,14.7,36.2,9l-0.5-1.5C18.1,13.4,6.3,29.8,6.3,48.2
				c0,18.3,11.5,34.5,28.8,40.5v7.3h15.7V80.3H35.2V87.1z M36.7,81.9h12.5v12.6H36.7V81.9z"/>
			<g>
				<path class="st2" d="M43,84.8c-1.9,0-3.4,1.5-3.4,3.4s1.5,3.4,3.4,3.4s3.4-1.5,3.4-3.4C46.4,86.3,44.9,84.8,43,84.8z"/>
				<path class="st2" d="M57.3,8.2c-1.9,0-3.4,1.5-3.4,3.4s1.5,3.4,3.4,3.4s3.4-1.5,3.4-3.4S59.2,8.2,57.3,8.2z"/>
			</g>
		</g>
	</g>
	<g id="Layer_3">
		<g class="st1">
			<g class="st3">
				<g>
					<defs>
						<polygon id="SVGID_1_" points="66.5,59.5 55.7,40.8 60.5,33.3 71.4,51.9 						"/>
					</defs>
					<clipPath id="SVGID_2_">
						<use xlink:href="#SVGID_1_"  style="overflow:visible;"/>
					</clipPath>
					<g class="st4">
						<g>
							<g>
								<g>
									<path class="st5" d="M65.4,43.3l0,0.3c0.1,0.4,0.1,0.8,0.1,1c0,0.6-0.1,1.1-0.3,1.6c0.3,0,0.7,0.2,1.1,0.9
										c1,1.7,0.2,3.2-0.3,4.1c0,0-0.1,0.1-0.1,0.2c0,0.1-0.1,0.1-0.1,0.2c-0.1,0.1-0.1,0.1-0.1,0.2l-1.8,2.7l0.3,0.7l0.7,1.5
										l0.8-1.2c0.2-0.2,0.3-0.5,0.4-0.7l1.6,2.8l0.6-1l-1.6-2.8c0.2-0.3,0.3-0.5,0.5-0.8l1.6,2.8l0.6-1L67.9,52
										c1-1.8,1.3-3.6-0.2-6.4C66.8,43.8,66.1,43.2,65.4,43.3"/>
									<path class="st5" d="M62.5,45.5c-0.1,0.2-0.2,0.3-0.3,0.4l-2-3.4c0.1-0.1,0.2-0.3,0.3-0.5c0.5-0.7,1.2-1.5,2.1,0
										C63.7,43.6,63,44.8,62.5,45.5 M56.9,38.9l1.6,2.8c-0.1,0.2-0.2,0.3-0.3,0.5c0,0.1-0.1,0.1-0.1,0.2v0l-0.9,1.3l1,1.8
										c0,0,0.2-0.3,0.3-0.5c0.1-0.1,0.1-0.2,0.1-0.2c0.3-0.4,0.6-0.1,0.8,0.2l1.8,3.2l2.6,4.4l1.1-1.7l-1.8-3.1l0,0l0,0
										c0-0.1,0.4-0.4,0.7-0.9c0.1-0.1,0.2-0.3,0.3-0.5c0.3-0.6,0.6-1.4,0.6-2.4c0-0.3,0-0.5-0.1-0.9c-0.2-1.1-0.6-2.5-1.3-3.6
										c-0.1-0.2-0.2-0.3-0.3-0.4c-1.1-1.4-2-1-2.9-0.1l-1.6-2.8l-0.6,1l1.6,2.7c-0.2,0.3-0.3,0.5-0.5,0.8l-1.6-2.7L56.9,38.9"/>
								</g>
							</g>
						</g>
					</g>
				</g>
			</g>
		</g>
	</g>
	<g id="Layer_5">
		<g class="st1">
			<g id="XMLID_12_">
				<g>
					<path class="st2" d="M73.9,19.8c10.2,0.4,18.3,8.8,18.3,19.1S84.1,57.5,73.9,58v2.4h-1.6V58C62.2,57.5,54,49.1,54,38.9
						s8.1-18.6,18.3-19.1v0L73.9,19.8L73.9,19.8z M90.6,38.9c0-9.6-7.8-17.5-17.5-17.5c-9.7,0-17.5,7.9-17.5,17.5
						c0,9.7,7.8,17.5,17.5,17.5C82.8,56.4,90.6,48.5,90.6,38.9z"/>
					<path class="st2" d="M83.6,30.9c2.8,3.8,4,8.3,2.9,11.5L86,43.8l-4.7-6.2l-3.4,2.6l-0.8-1.1L63.2,49.5l-3.2-4.2l13.9-10.5
						l-0.8-1.1l3.4-2.6L71.8,25l1.5-0.1C76.8,24.8,80.7,27.1,83.6,30.9z"/>
					<rect x="72.3" y="63.5" class="st2" width="1.6" height="3.2"/>
					<rect x="72.3" y="13.5" class="st2" width="1.6" height="3.2"/>
					<rect x="69.8" y="9.6" class="st2" width="3.2" height="1.6"/>
					<rect x="66.9" y="66" class="st2" width="3.2" height="1.6"/>
					<rect x="63.5" y="9.6" class="st2" width="3.2" height="1.6"/>
					<rect x="60.6" y="66" class="st2" width="3.2" height="1.6"/>
					<rect x="57.2" y="9.6" class="st2" width="3.2" height="1.6"/>
					<rect x="54.3" y="66" class="st2" width="3.2" height="1.6"/>
					<rect x="50.8" y="9.6" class="st2" width="3.2" height="1.6"/>
					<rect x="47.9" y="66" class="st2" width="3.2" height="1.6"/>
					<path class="st2" d="M47.7,9.6v1.6h-2.3v63.1H27.2V82c3.2,0.4,5.7,2.9,6.1,6.1h11.2v1.6H33.3c-0.4,3.5-3.3,6.2-6.9,6.2
						s-6.5-2.7-6.9-6.2H8.3v-1.6h11.2c0.4-3.2,2.9-5.7,6.1-6.1v-7.7H7.5V3.2h37.8v6.4H47.7z M35.3,39.7v-1.6H17.6v1.6H35.3z
						 M35.3,33.1v-1.6H17.6v1.6H35.3z M35.3,26.4v-1.6H17.6v1.6H35.3z M35.3,19.9v-1.6H17.6v1.6H35.3z M31.8,88.9
						c0-3-2.4-5.4-5.4-5.4s-5.4,2.4-5.4,5.4s2.4,5.4,5.4,5.4S31.8,91.8,31.8,88.9z M31.5,56.5c0-2.8-2.3-5-5.1-5c-2.8,0-5,2.3-5,5
						s2.3,5,5,5C29.2,61.6,31.5,59.3,31.5,56.5z"/>
					<path class="st2" d="M26.4,53.1c1.9,0,3.5,1.6,3.5,3.5S28.3,60,26.4,60S23,58.5,23,56.6C23,54.6,24.5,53.1,26.4,53.1z"/>
				</g>
			</g>
		</g>
	</g>
	<g id="Layer_6">
		<g class="st1">
			<g id="XMLID_8_">
				<g>
					<polygon class="st2" points="89.7,59.9 89.7,67.8 81.2,67.8 81.2,66.3 88.2,59.9 					"/>
					<polygon class="st2" points="89.7,29.3 89.7,59.9 88.2,59.9 88.2,37.2 81.2,30.8 81.2,29.3 					"/>
					<path class="st2" d="M81.2,30.8H47.1v-1.5h13.8V16.1H17.3V81h43.7V67.8v-1.5h20.3v1.5H68.4v18.4c0,4.9-4,8.9-8.9,8.9H18.7
						c-4.9,0-8.9-4-8.9-8.9V14.9c0-4.9,4-8.9,8.9-8.9h40.8c4.9,0,8.9,4,8.9,8.9v14.3h12.9V30.8z M45.9,90.4V84H32.3v6.3H45.9z"/>
					<polygon class="st2" points="60.9,67.8 38.5,67.8 38.5,59.8 40,59.8 47.1,66.3 60.9,66.3 					"/>
					<rect x="33.7" y="85.5" class="st2" width="10.7" height="3.4"/>
					<polygon class="st2" points="40,37.3 40,59.8 38.5,59.8 38.5,29.3 47.1,29.3 47.1,30.8 					"/>
					<polygon class="st2" points="35.8,71.6 35.8,25.6 41.1,25.6 41.1,27.1 37.2,27.1 37.2,70.1 41.1,70.1 41.1,71.6 					"/>
				</g>
			</g>
		</g>
	</g>
	<g id="Layer_7">
		<g class="st1">
			<g id="XMLID_3_">
				<g>
					<path class="st2" d="M77.1,19.6v-0.3c0-1.5,1.2-2.7,2.7-2.7h10.7c1.5,0,2.7,1.2,2.7,2.7v2.2c0,1.5-1.2,2.7-2.7,2.7H79.8
						c-1.5,0-2.7-1.2-2.7-2.7v-0.3h-8.7c-0.4,0-0.8,0-1.2,0.1L67,19.7c0.4-0.1,0.9-0.1,1.4-0.1L77.1,19.6L77.1,19.6z"/>
					<path class="st2" d="M47.3,19.7C47.3,13.2,40,7.9,31,7.9s-16.4,5.3-16.4,11.8v13h32.7V19.7z M13,19.7c0-7.4,8.1-13.4,18-13.4
						s18,6,18,13.4v13h7.2v44.2H5.8V32.7H13V19.7z"/>
					<path class="st2" d="M14.5,90.9c2.1,0,3.8-1.7,3.8-3.8s-1.7-3.8-3.8-3.8s-3.8,1.7-3.8,3.8S12.4,90.9,14.5,90.9z M47.4,90.9
						c2.1,0,3.8-1.7,3.8-3.8s-1.7-3.8-3.8-3.8s-3.8,1.7-3.8,3.8S45.3,90.9,47.4,90.9z M63.8,25v62.9h-11c-0.4,2.6-2.6,4.6-5.3,4.6
						c-2.7,0-5-2-5.3-4.6H19.9c-0.4,2.6-2.6,4.6-5.3,4.6c-3,0-5.4-2.4-5.4-5.4c0-3,2.4-5.4,5.4-5.4c2.7,0,4.9,2,5.3,4.6h22.2
						c0.4-2.6,2.6-4.6,5.3-4.6s5,2,5.3,4.6h9.4V25.1c0-0.3,0-2.2,1.3-3.6c0.8-0.9,2-1.5,3.5-1.7l0.2,1.6c-1.1,0.2-1.9,0.5-2.5,1.2
						C63.7,23.6,63.8,25,63.8,25C63.8,25,63.8,25,63.8,25z"/>
				</g>
			</g>
		</g>
	</g>
	<g id="Layer_8">
		<g class="st1">
			<g id="XMLID_10_">
				<g>
					<path class="st2" d="M40.7,17.3h5.5v5.1h4V7h1.5v15.4h5.1v-5.1h5.5V7h1.5v11.8h-5.5v3.6h8.4v-5.1h5.5V7h1.5v11.8h-5.5v3.6h10
						v12h3.1v-5.5H93v1.5H82.7v5.5h-4.6v8.4h3.1v-5.5H93v1.5H82.7v5.5h-4.6v4H93v1.5H78.1v5.1h4.6v5.5H93v1.5H81.2v-5.5h-3.1v8.4
						h4.6v5.5H93v1.5H81.2v-5.5h-3.1v10.9H67.6v2.6h5.5V93h-1.5V82.7h-5.5v-4.1h-8.4v2.6h5.5V93h-1.5V82.7h-5.5v-4.1h-5.1V93h-1.5
						V78.6h-4v4.1h-5.5V93h-1.5V81.2h5.5v-2.6h-8.3v4.1h-5.5V93h-1.5V81.2h5.5v-2.6H21.9V67.1h-3.1v5.5H7v-1.5h10.3v-5.5h4.6v-8.4
						h-3.1v5.5H7v-1.5h10.3v-5.5h4.6v-5.1H7v-1.5h14.9v-4h-4.6v-5.5H7v-1.5h11.8v5.5h3.1v-8.4h-4.6v-5.5H7v-1.5h11.8v5.5h3.1V22.4
						h12.9v-3.6h-5.5V7h1.5v10.3h5.5v5.1h8.3v-3.6h-5.5V7h1.5C40.7,7,40.7,17.3,40.7,17.3z M67.3,67.8V56h-1.5v10.3H55.5v1.5
						L67.3,67.8L67.3,67.8z M67.3,45V33.3H55.5v1.5h10.2V45C65.8,45,67.3,45,67.3,45z M44.5,67.8v-1.5H34.2V56h-1.5v11.7H44.5z
						 M44.5,34.7v-1.5H32.7V45h1.5V34.7H44.5z"/>
				</g>
			</g>
		</g>
	</g>
	<g id="Layer_9">
		<g class="st1">
			<g id="XMLID_5_">
				<g>
					<path class="st2" d="M88.6,35.9c3.4,1.9,4.7,6.2,2.8,9.7L74.1,77.4c-1.2,2.2-3.4,3.6-5.9,3.7l-0.1-1.4c2-0.1,3.8-1.2,4.8-3
						l14.2-26.1l-21-11.5c0.4,0.4,0.7,0.8,1,1.3L65.9,41c-1-1.7-2.8-2.8-4.9-2.8H14.4c-2.4,0-4.4,1.5-5.3,3.5l-1.3-0.5
						c1.1-2.6,3.6-4.4,6.6-4.4h12.5L38,16.4c1.9-3.4,6.2-4.7,9.7-2.8L88.6,35.9z M62.2,37L36.1,22.8l-7.7,14.2h32.6
						C61.4,36.9,61.8,36.9,62.2,37z"/>
					<path class="st2" d="M68.1,79.7l0.1,1.4c-0.1,0-0.1,0-0.2,0c-0.4,3.5-3.4,6.3-7.1,6.3H14.4c-3.9,0-7.1-3.2-7.1-7.1V44
						c0-1,0.2-1.9,0.6-2.8L9,41.8c-0.3,0.7-0.4,1.4-0.4,2.2v5.1h58.1V44c0-1.1-0.3-2.1-0.8-3l1.2-0.6c0.6,1,1,2.3,1,3.6V79.7z
						 M66.7,57.8v-7.3H8.6v7.3H66.7z M62.5,76.8V65.4H47.3v1.4h13.8v10H62.5z M56.8,72.2v-1.4h-9.5v1.4H56.8z M43.2,72.2v-1.4H29.7
						v1.4H43.2z M43.2,66.8v-1.4H29.7v1.4H43.2z"/>
				</g>
			</g>
		</g>
	</g>
	<g id="Layer_10">
		<g class="st1">
			<g id="XMLID_2_">
				<g>
					<path class="st2" d="M71.5,26.6c12.2,0,22.1,9.9,22.1,22.1s-9.9,22.1-22.1,22.1c-3.9,0-7.7-1-11-2.9H59V24.5h1.5v5
						C63.8,27.6,67.6,26.6,71.5,26.6z"/>
					<path class="st2" d="M60.5,67.8v15.4c0,2.3-1.9,4.2-4.2,4.2H10.6c-2.3,0-4.2-1.9-4.2-4.2v-9.8H8h51v-5.7H60.5z M37.2,80.7v-1.5
						h-7.4v1.5H37.2z"/>
					<polygon class="st2" points="48.8,50 35.1,56.9 35.1,50.8 27,50.8 27,49.2 35.1,49.2 35.1,43.1 					"/>
					<rect x="23.3" y="44" class="st2" width="1.5" height="12"/>
					<path class="st2" d="M7.9,24.5v48.9H6.4V16.8c0-2.3,1.9-4.2,4.2-4.2h45.7c2.3,0,4.2,1.9,4.2,4.2v7.8H59H7.9z"/>
				</g>
			</g>
		</g>
	</g>
	<g id="Layer_11" class="st1">
		<g>
			<g id="XMLID_4_">
				<g>
					<path class="st2" d="M82.3,18.5v43.7h-1.5v-1.5v-53V6.2h4.4c3.4,0,6.2,2.8,6.2,6.2s-2.8,6.2-6.2,6.2H82.3z"/>
					<polygon class="st2" points="56.8,84.1 50.2,93.2 43.5,84.1 49.4,84.1 49.4,80.1 50.9,80.1 50.9,84.1 					"/>
					<path class="st2" d="M26.4,14.8v7l6.5-7H26.4z M26.4,77.3h6.4l-6.4-6.9C26.4,70.4,26.4,77.3,26.4,77.3z M24.9,13.3h49.3v47.4
						h6.7v1.5h-6.7v16.5H24.9V62.2v-1.5V13.3z M66.1,14.8l6.5,7v-7H66.1z M66.3,77.3h6.4v-6.9L66.3,77.3z"/>
					<path class="st2" d="M18.7,7.7v53h6.2v1.5h-7.7V18.5h-3.4c-3.4,0-6.2-2.8-6.2-6.2s2.8-6.2,6.2-6.2h67v1.5
						C80.8,7.7,18.7,7.7,18.7,7.7z"/>
				</g>
			</g>
		</g>
	</g>
	<g class="st1">
		<g>
			<path class="st5" d="M59.6,48.1c-0.3,3.5-3,4.5-6.7,4.7l0,3.7h-2.2l0-3.7c-0.6,0-1.2,0-1.8,0l0,3.7l-2.2,0l0-3.7
				c-0.5,0-1.1,0-1.6,0l-2.9,0l0.3-1.8l0.1-0.8h6.3c0.1,0,0.3,0,0.4,0c0.1,0,0.3,0,0.4,0c2,0,5.5-0.1,5.5-2.5c0-0.9-0.4-1.5-1.1-1.8
				c0.9-0.2,1.7-0.5,2.3-0.9c0.4-0.2,0.7-0.5,1-0.8c0.1-0.1,0.2-0.2,0.2-0.2C59,44.6,59.8,45.8,59.6,48.1z"/>
		</g>
		<g>
			<g>
				<g>
					<path class="st5" d="M58.3,39.2c0-0.2,0-0.4-0.1-0.6c-0.5-2.2-2.7-2.9-5.3-3.2l0-3.7h-2.2l0,3.6c-0.6,0-1.2,0-1.8,0l0-3.6
						l-2.2,0l0,3.7c-0.3,0-0.7,0-1,0c-0.1,0-0.3,0-0.4,0v0l-3.1,0v2.4c0,0,0.7,0,1.2,0c0.2,0,0.4,0,0.4,0c0.9,0,1.2,0.5,1.3,1v4.2
						l0,5.8h3.9l0-4.1c0,0,0,0,0,0c0,0,0,0,0,0c0.2,0,1.1,0.1,2.3,0.1c0.3,0,0.7,0,1,0c1.3-0.1,2.7-0.3,3.8-1
						c0.3-0.2,0.6-0.4,0.9-0.7C57.8,42.2,58.4,40.7,58.3,39.2z M49.9,42.4c-0.4,0-0.7,0-1,0l0-4.5c0.3,0,0.7,0,1.2,0
						c1.7,0,4,0.2,4,2.3C54.1,42.2,51.5,42.4,49.9,42.4z"/>
				</g>
			</g>
		</g>
	</g>
</g>
<g id="Layer_2">
	<g>
		<g id="XMLID_7_">
			<g>
				<path class="st2" d="M89.8,16.3l-11.7,6.6c-0.2,0.1-0.4,0.5-0.4,0.8v14.2l11.7-6.6c0.2-0.1,0.4-0.5,0.4-0.8V16.3z M76.2,61.1
					V39.4c-0.1,0-0.3-0.1-0.4-0.1l-12-6.7c-0.6-0.4-1.1-1.2-1.1-2V26l-17,8.8L45,33.5l17.7-9.1v-8.4c0-0.9,0.6-1.3,1.2-1.3
					c0.1,0,0.2,0,0.3,0l12.9-7l12.9,7c0.3-0.1,0.6,0,0.8,0.1c0.4,0.2,0.6,0.6,0.6,1.1v14.4c0,0.8-0.5,1.6-1.1,2l-12,6.7
					c-0.1,0.1-0.3,0.1-0.4,0.2v21.7H76.2z M76.9,9.4l-11.3,6.2l10.9,6.1c0.2,0.1,0.3,0.2,0.4,0.3c0.1-0.1,0.3-0.3,0.4-0.3l10.9-6.1
					L76.9,9.4z"/>
				<path class="st2" d="M73.4,74.1c0,10.1-8.2,18.3-18.3,18.3c0,0,0,0,0,0c0,0,0,0,0,0c-0.1,0-0.1,0-0.2,0
					c-8.6-0.1-15.7-6.1-17.6-14.1l1.4-0.3c1.1,4.5-1.6-7-1.6-7c1.4-8.6,8.9-15.2,17.9-15.3c0.1,0,0.1,0,0.2,0c0,0,0,0,0,0
					c0,0,0,0,0,0c6.4,0,12.1,3.3,15.3,8.3l5.8-2.9h1.4V62l-6.5,3.3C72.6,67.9,73.4,70.9,73.4,74.1z"/>
				<path class="st2" d="M42.9,44.7c0.3-0.2,0.7-0.8,0.7-1.2V24.3c0,0,0,0,0-0.1l-15.9,8.9C27.3,33.4,27,34,27,34.4v19.2
					c0,0,0,0,0,0.1L42.9,44.7z M36.7,75.2c0-0.4,0-0.7,0-1.1c0-1,0.1-2.1,0.3-3.1l1.4,0.2c-0.2,0.9-0.2,1.9-0.2,2.8
					c0,1.4,0.2,2.7,0.5,3.9l-1.4,0.3c-0.1-0.4-0.2-0.9-0.3-1.3L16.6,62.8V50.2L9,45.9c-0.8-0.4-1.4-1.5-1.4-2.4V24.3
					c0-0.9,0.5-1.5,1.3-1.5c0.1,0,0.3,0,0.4,0.1l17-9.2l17,9.2c0.4-0.1,0.7-0.1,1,0.1c0.4,0.2,0.7,0.7,0.7,1.3v9.2l0.6,1.2L45,35.1
					v8.4c0,0.9-0.6,2-1.4,2.4l-15.9,8.9c-0.3,0.1-0.5,0.2-0.8,0.2c-0.2,0-0.4-0.1-0.6-0.2c-0.2,0.1-0.4,0.2-0.6,0.2
					c-0.3,0-0.5-0.1-0.8-0.2L18,51v11.1L36.7,75.2z M26.3,32.6c0.2-0.2,0.4-0.5,0.7-0.6l14.8-8.3l-15.5-8.4l-15.5,8.4L25.6,32
					C25.9,32.1,26.1,32.3,26.3,32.6z"/>
			</g>
		</g>
	</g>
	<g>
		<g>
			<path class="st5" d="M66.1,78.6c-0.4,4-3.4,5.1-7.6,5.3l0,4.2H56l0-4.1c-0.7,0-1.3,0-2,0l0,4.2l-2.5,0l0-4.2c-0.6,0-1.2,0-1.8,0
				l-3.3,0l0.4-2.1l0.1-0.9H54c0.1,0,0.3,0,0.5,0c0.1,0,0.3,0,0.5,0c2.2,0,6.2-0.1,6.2-2.8c0-1-0.5-1.7-1.2-2.1c1-0.2,1.9-0.5,2.6-1
				c0.4-0.2,0.8-0.5,1.2-0.9c0.1-0.1,0.2-0.2,0.3-0.3C65.5,74.7,66.4,76.1,66.1,78.6z"/>
		</g>
		<g>
			<g>
				<g>
					<path class="st5" d="M64.7,68.6c0-0.3-0.1-0.5-0.1-0.7c-0.6-2.4-3-3.3-6-3.6l0-4.2h-2.5l0,4c-0.7,0-1.3,0-2,0l0-4.1l-2.5,0
						l0,4.2c-0.4,0-0.8,0-1.2,0c-0.1,0-0.3,0-0.4,0v0l-3.5,0V67c0,0,0.8,0,1.4,0c0.3,0,0.5,0,0.5,0c1,0,1.3,0.6,1.5,1.1v4.7l0,6.6
						H54l0-4.7c0,0,0,0,0,0c0,0,0,0,0,0c0.2,0,1.2,0.1,2.6,0.1c0.4,0,0.7,0,1.1,0c1.4-0.1,3-0.4,4.3-1.1c0.3-0.2,0.7-0.4,1-0.7
						C64.1,72,64.9,70.3,64.7,68.6z M55.2,72.2c-0.5,0-0.8,0-1.1,0l0-5.1c0.3,0,0.8,0,1.4,0c1.9,0,4.5,0.3,4.5,2.6
						C60,72,57,72.2,55.2,72.2z"/>
				</g>
			</g>
		</g>
	</g>
</g>
</svg>
