<?xml version="1.0" encoding="utf-8"?>
<!-- Generator: Adobe Illustrator 23.0.1, SVG Export Plug-In . SVG Version: 6.00 Build 0)  -->
<svg version="1.1" xmlns="http://www.w3.org/2000/svg" xmlns:xlink="http://www.w3.org/1999/xlink" x="0px" y="0px"
	 viewBox="0 0 100 100" style="enable-background:new 0 0 100 100;" xml:space="preserve">
<style type="text/css">
	.st0{display:none;}
	.st1{display:inline;}
	.st2{fill:#0CB315;}
	.st3{enable-background:new    ;}
	.st4{clip-path:url(#SVGID_2_);}
	.st5{fill:#FFFFFF;}
	.st6{display:none;fill:#0CB315;}
</style>
<g id="Layer_1" class="st0">
	<g>
		<g class="st1">
			<g id="XMLID_11_">
				<g>
					<path class="st2" d="M82.5,48.7c8.2,0.4,14.7,7.2,14.7,15.5c0,8.5-6.9,15.5-15.5,15.5c-8.5,0-15.5-6.9-15.5-15.5
						c0-8.3,6.5-15,14.7-15.5V24.4v-1.5h6.7v1.5h-5.2L82.5,48.7L82.5,48.7z"/>
					<path class="st2" d="M60.6,31.9V10.6h-4.1v11.6h-1.5V10.8h-4.1v11.5h-1.5V10.8h-4.1v17h-1.5v-17h-5v25.7h5.8V38h-5.8v46.1h17.7
						V45.3L60.6,31.9z M19,24.4v24.3c8.2,0.4,14.7,7.2,14.7,15.5c0,8.5-6.9,15.5-15.5,15.5c-8.5,0-15.5-6.9-15.5-15.5
						c0-8.3,6.5-15,14.7-15.5V24.4h-5.6v-1.5H37V9.3h7.3h0.8H50h0.8h4.9V9.1h6.4v13.8H81v1.5H62.1v7.7l-4.3,13.4v40.1H37V38v-0.8
						V24.4H19z"/>
				</g>
			</g>
		</g>
	</g>
	<g id="Layer_4">
		<g class="st1">
			<path class="st2" d="M60.8,22l-0.5,0.7l-24.6,6.5L21,50l-0.8,0.2l18.5,26.6l26.5-6.7l-0.3-0.5l14.5-21.1L60.8,22z M36.7,30.6
				L59,24.6L45.9,43.8l-22.5,5.6L36.7,30.6z M39.4,75L22.8,51.2L46,45.4l16.6,23.8L39.4,75z"/>
			<path class="st2" d="M65.1,11.3V3.9H49.4v15.7h15.7v-6.7c16.3,5.9,27.2,21.4,27.2,38.8C92.4,69.6,81,85.3,64.1,91l0.5,1.5
				c17.5-5.9,29.3-22.2,29.3-40.7C93.9,33.5,82.4,17.3,65.1,11.3z M63.6,18.1H51V5.5h12.5C63.6,5.5,63.6,18.1,63.6,18.1z"/>
			<path class="st2" d="M35.2,87.1C18.8,81.1,7.9,65.7,7.9,48.2C7.9,30.4,19.3,14.7,36.2,9l-0.5-1.5C18.1,13.4,6.3,29.8,6.3,48.2
				c0,18.3,11.5,34.5,28.8,40.5v7.3h15.7V80.3H35.2V87.1z M36.7,81.9h12.5v12.6H36.7V81.9z"/>
			<g>
				<path class="st2" d="M43,84.8c-1.9,0-3.4,1.5-3.4,3.4s1.5,3.4,3.4,3.4s3.4-1.5,3.4-3.4C46.4,86.3,44.9,84.8,43,84.8z"/>
				<path class="st2" d="M57.3,8.2c-1.9,0-3.4,1.5-3.4,3.4s1.5,3.4,3.4,3.4s3.4-1.5,3.4-3.4S59.2,8.2,57.3,8.2z"/>
			</g>
		</g>
	</g>
	<g id="Layer_3">
		<g class="st1">
			<g class="st3">
				<g>
					<defs>
						<polygon id="SVGID_1_" points="66.5,59.5 55.7,40.8 60.5,33.3 71.4,51.9 						"/>
					</defs>
					<clipPath id="SVGID_2_">
						<use xlink:href="#SVGID_1_"  style="overflow:visible;"/>
					</clipPath>
					<g class="st4">
						<g>
							<g>
								<g>
									<path class="st5" d="M65.4,43.3l0,0.3c0.1,0.4,0.1,0.8,0.1,1c0,0.6-0.1,1.1-0.3,1.6c0.3,0,0.7,0.2,1.1,0.9
										c1,1.7,0.2,3.2-0.3,4.1c0,0-0.1,0.1-0.1,0.2c0,0.1-0.1,0.1-0.1,0.2c-0.1,0.1-0.1,0.1-0.1,0.2l-1.8,2.7l0.3,0.7l0.7,1.5
										l0.8-1.2c0.2-0.2,0.3-0.5,0.4-0.7l1.6,2.8l0.6-1l-1.6-2.8c0.2-0.3,0.3-0.5,0.5-0.8l1.6,2.8l0.6-1L67.9,52
										c1-1.8,1.3-3.6-0.2-6.4C66.8,43.8,66.1,43.2,65.4,43.3"/>
									<path class="st5" d="M62.5,45.5c-0.1,0.2-0.2,0.3-0.3,0.4l-2-3.4c0.1-0.1,0.2-0.3,0.3-0.5c0.5-0.7,1.2-1.5,2.1,0
										C63.7,43.6,63,44.8,62.5,45.5 M56.9,38.9l1.6,2.8c-0.1,0.2-0.2,0.3-0.3,0.5c0,0.1-0.1,0.1-0.1,0.2v0l-0.9,1.3l1,1.8
										c0,0,0.2-0.3,0.3-0.5c0.1-0.1,0.1-0.2,0.1-0.2c0.3-0.4,0.6-0.1,0.8,0.2l1.8,3.2l2.6,4.4l1.1-1.7l-1.8-3.1l0,0l0,0
										c0-0.1,0.4-0.4,0.7-0.9c0.1-0.1,0.2-0.3,0.3-0.5c0.3-0.6,0.6-1.4,0.6-2.4c0-0.3,0-0.5-0.1-0.9c-0.2-1.1-0.6-2.5-1.3-3.6
										c-0.1-0.2-0.2-0.3-0.3-0.4c-1.1-1.4-2-1-2.9-0.1l-1.6-2.8l-0.6,1l1.6,2.7c-0.2,0.3-0.3,0.5-0.5,0.8l-1.6-2.7L56.9,38.9"/>
								</g>
							</g>
						</g>
					</g>
				</g>
			</g>
		</g>
	</g>
	<g id="Layer_5">
		<g class="st1">
			<g id="XMLID_12_">
				<g>
					<path class="st2" d="M73.9,19.8c10.2,0.4,18.3,8.8,18.3,19.1S84.1,57.5,73.9,58v2.4h-1.6V58C62.2,57.5,54,49.1,54,38.9
						s8.1-18.6,18.3-19.1v0L73.9,19.8L73.9,19.8z M90.6,38.9c0-9.6-7.8-17.5-17.5-17.5c-9.7,0-17.5,7.9-17.5,17.5
						c0,9.7,7.8,17.5,17.5,17.5C82.8,56.4,90.6,48.5,90.6,38.9z"/>
					<path class="st2" d="M83.6,30.9c2.8,3.8,4,8.3,2.9,11.5L86,43.8l-4.7-6.2l-3.4,2.6l-0.8-1.1L63.2,49.5l-3.2-4.2l13.9-10.5
						l-0.8-1.1l3.4-2.6L71.8,25l1.5-0.1C76.8,24.8,80.7,27.1,83.6,30.9z"/>
					<rect x="72.3" y="63.5" class="st2" width="1.6" height="3.2"/>
					<rect x="72.3" y="13.5" class="st2" width="1.6" height="3.2"/>
					<rect x="69.8" y="9.6" class="st2" width="3.2" height="1.6"/>
					<rect x="66.9" y="66" class="st2" width="3.2" height="1.6"/>
					<rect x="63.5" y="9.6" class="st2" width="3.2" height="1.6"/>
					<rect x="60.6" y="66" class="st2" width="3.2" height="1.6"/>
					<rect x="57.2" y="9.6" class="st2" width="3.2" height="1.6"/>
					<rect x="54.3" y="66" class="st2" width="3.2" height="1.6"/>
					<rect x="50.8" y="9.6" class="st2" width="3.2" height="1.6"/>
					<rect x="47.9" y="66" class="st2" width="3.2" height="1.6"/>
					<path class="st2" d="M47.7,9.6v1.6h-2.3v63.1H27.2V82c3.2,0.4,5.7,2.9,6.1,6.1h11.2v1.6H33.3c-0.4,3.5-3.3,6.2-6.9,6.2
						s-6.5-2.7-6.9-6.2H8.3v-1.6h11.2c0.4-3.2,2.9-5.7,6.1-6.1v-7.7H7.5V3.2h37.8v6.4H47.7z M35.3,39.7v-1.6H17.6v1.6H35.3z
						 M35.3,33.1v-1.6H17.6v1.6H35.3z M35.3,26.4v-1.6H17.6v1.6H35.3z M35.3,19.9v-1.6H17.6v1.6H35.3z M31.8,88.9
						c0-3-2.4-5.4-5.4-5.4s-5.4,2.4-5.4,5.4s2.4,5.4,5.4,5.4S31.8,91.8,31.8,88.9z M31.5,56.5c0-2.8-2.3-5-5.1-5c-2.8,0-5,2.3-5,5
						s2.3,5,5,5C29.2,61.6,31.5,59.3,31.5,56.5z"/>
					<path class="st2" d="M26.4,53.1c1.9,0,3.5,1.6,3.5,3.5S28.3,60,26.4,60S23,58.5,23,56.6C23,54.6,24.5,53.1,26.4,53.1z"/>
				</g>
			</g>
		</g>
	</g>
	<g id="Layer_6">
		<g class="st1">
			<g id="XMLID_8_">
				<g>
					<polygon class="st2" points="89.7,59.9 89.7,67.8 81.2,67.8 81.2,66.3 88.2,59.9 					"/>
					<polygon class="st2" points="89.7,29.3 89.7,59.9 88.2,59.9 88.2,37.2 81.2,30.8 81.2,29.3 					"/>
					<path class="st2" d="M81.2,30.8H47.1v-1.5h13.8V16.1H17.3V81h43.7V67.8v-1.5h20.3v1.5H68.4v18.4c0,4.9-4,8.9-8.9,8.9H18.7
						c-4.9,0-8.9-4-8.9-8.9V14.9c0-4.9,4-8.9,8.9-8.9h40.8c4.9,0,8.9,4,8.9,8.9v14.3h12.9V30.8z M45.9,90.4V84H32.3v6.3H45.9z"/>
					<polygon class="st2" points="60.9,67.8 38.5,67.8 38.5,59.8 40,59.8 47.1,66.3 60.9,66.3 					"/>
					<rect x="33.7" y="85.5" class="st2" width="10.7" height="3.4"/>
					<polygon class="st2" points="40,37.3 40,59.8 38.5,59.8 38.5,29.3 47.1,29.3 47.1,30.8 					"/>
					<polygon class="st2" points="35.8,71.6 35.8,25.6 41.1,25.6 41.1,27.1 37.2,27.1 37.2,70.1 41.1,70.1 41.1,71.6 					"/>
				</g>
			</g>
		</g>
	</g>
	<g id="Layer_7">
		<g class="st1">
			<g id="XMLID_3_">
				<g>
					<path class="st2" d="M77.1,19.6v-0.3c0-1.5,1.2-2.7,2.7-2.7h10.7c1.5,0,2.7,1.2,2.7,2.7v2.2c0,1.5-1.2,2.7-2.7,2.7H79.8
						c-1.5,0-2.7-1.2-2.7-2.7v-0.3h-8.7c-0.4,0-0.8,0-1.2,0.1L67,19.7c0.4-0.1,0.9-0.1,1.4-0.1L77.1,19.6L77.1,19.6z"/>
					<path class="st2" d="M47.3,19.7C47.3,13.2,40,7.9,31,7.9s-16.4,5.3-16.4,11.8v13h32.7V19.7z M13,19.7c0-7.4,8.1-13.4,18-13.4
						s18,6,18,13.4v13h7.2v44.2H5.8V32.7H13V19.7z"/>
					<path class="st2" d="M14.5,90.9c2.1,0,3.8-1.7,3.8-3.8s-1.7-3.8-3.8-3.8s-3.8,1.7-3.8,3.8S12.4,90.9,14.5,90.9z M47.4,90.9
						c2.1,0,3.8-1.7,3.8-3.8s-1.7-3.8-3.8-3.8s-3.8,1.7-3.8,3.8S45.3,90.9,47.4,90.9z M63.8,25v62.9h-11c-0.4,2.6-2.6,4.6-5.3,4.6
						c-2.7,0-5-2-5.3-4.6H19.9c-0.4,2.6-2.6,4.6-5.3,4.6c-3,0-5.4-2.4-5.4-5.4c0-3,2.4-5.4,5.4-5.4c2.7,0,4.9,2,5.3,4.6h22.2
						c0.4-2.6,2.6-4.6,5.3-4.6s5,2,5.3,4.6h9.4V25.1c0-0.3,0-2.2,1.3-3.6c0.8-0.9,2-1.5,3.5-1.7l0.2,1.6c-1.1,0.2-1.9,0.5-2.5,1.2
						C63.7,23.6,63.8,25,63.8,25C63.8,25,63.8,25,63.8,25z"/>
				</g>
			</g>
		</g>
	</g>
	<g id="Layer_8">
		<g class="st1">
			<g id="XMLID_10_">
				<g>
					<path class="st2" d="M40.7,17.3h5.5v5.1h4V7h1.5v15.4h5.1v-5.1h5.5V7h1.5v11.8h-5.5v3.6h8.4v-5.1h5.5V7h1.5v11.8h-5.5v3.6h10
						v12h3.1v-5.5H93v1.5H82.7v5.5h-4.6v8.4h3.1v-5.5H93v1.5H82.7v5.5h-4.6v4H93v1.5H78.1v5.1h4.6v5.5H93v1.5H81.2v-5.5h-3.1v8.4
						h4.6v5.5H93v1.5H81.2v-5.5h-3.1v10.9H67.6v2.6h5.5V93h-1.5V82.7h-5.5v-4.1h-8.4v2.6h5.5V93h-1.5V82.7h-5.5v-4.1h-5.1V93h-1.5
						V78.6h-4v4.1h-5.5V93h-1.5V81.2h5.5v-2.6h-8.3v4.1h-5.5V93h-1.5V81.2h5.5v-2.6H21.9V67.1h-3.1v5.5H7v-1.5h10.3v-5.5h4.6v-8.4
						h-3.1v5.5H7v-1.5h10.3v-5.5h4.6v-5.1H7v-1.5h14.9v-4h-4.6v-5.5H7v-1.5h11.8v5.5h3.1v-8.4h-4.6v-5.5H7v-1.5h11.8v5.5h3.1V22.4
						h12.9v-3.6h-5.5V7h1.5v10.3h5.5v5.1h8.3v-3.6h-5.5V7h1.5C40.7,7,40.7,17.3,40.7,17.3z M67.3,67.8V56h-1.5v10.3H55.5v1.5
						L67.3,67.8L67.3,67.8z M67.3,45V33.3H55.5v1.5h10.2V45C65.8,45,67.3,45,67.3,45z M44.5,67.8v-1.5H34.2V56h-1.5v11.7H44.5z
						 M44.5,34.7v-1.5H32.7V45h1.5V34.7H44.5z"/>
				</g>
			</g>
		</g>
	</g>
	<g id="Layer_9">
		<g class="st1">
			<g id="XMLID_5_">
				<g>
					<path class="st2" d="M88.6,35.9c3.4,1.9,4.7,6.2,2.8,9.7L74.1,77.4c-1.2,2.2-3.4,3.6-5.9,3.7l-0.1-1.4c2-0.1,3.8-1.2,4.8-3
						l14.2-26.1l-21-11.5c0.4,0.4,0.7,0.8,1,1.3L65.9,41c-1-1.7-2.8-2.8-4.9-2.8H14.4c-2.4,0-4.4,1.5-5.3,3.5l-1.3-0.5
						c1.1-2.6,3.6-4.4,6.6-4.4h12.5L38,16.4c1.9-3.4,6.2-4.7,9.7-2.8L88.6,35.9z M62.2,37L36.1,22.8l-7.7,14.2h32.6
						C61.4,36.9,61.8,36.9,62.2,37z"/>
					<path class="st2" d="M68.1,79.7l0.1,1.4c-0.1,0-0.1,0-0.2,0c-0.4,3.5-3.4,6.3-7.1,6.3H14.4c-3.9,0-7.1-3.2-7.1-7.1V44
						c0-1,0.2-1.9,0.6-2.8L9,41.8c-0.3,0.7-0.4,1.4-0.4,2.2v5.1h58.1V44c0-1.1-0.3-2.1-0.8-3l1.2-0.6c0.6,1,1,2.3,1,3.6V79.7z
						 M66.7,57.8v-7.3H8.6v7.3H66.7z M62.5,76.8V65.4H47.3v1.4h13.8v10H62.5z M56.8,72.2v-1.4h-9.5v1.4H56.8z M43.2,72.2v-1.4H29.7
						v1.4H43.2z M43.2,66.8v-1.4H29.7v1.4H43.2z"/>
				</g>
			</g>
		</g>
	</g>
	<g id="Layer_10">
		<g class="st1">
			<g id="XMLID_2_">
				<g>
					<path class="st2" d="M71.5,26.6c12.2,0,22.1,9.9,22.1,22.1s-9.9,22.1-22.1,22.1c-3.9,0-7.7-1-11-2.9H59V24.5h1.5v5
						C63.8,27.6,67.6,26.6,71.5,26.6z"/>
					<path class="st2" d="M60.5,67.8v15.4c0,2.3-1.9,4.2-4.2,4.2H10.6c-2.3,0-4.2-1.9-4.2-4.2v-9.8H8h51v-5.7H60.5z M37.2,80.7v-1.5
						h-7.4v1.5H37.2z"/>
					<polygon class="st2" points="48.8,50 35.1,56.9 35.1,50.8 27,50.8 27,49.2 35.1,49.2 35.1,43.1 					"/>
					<rect x="23.3" y="44" class="st2" width="1.5" height="12"/>
					<path class="st2" d="M7.9,24.5v48.9H6.4V16.8c0-2.3,1.9-4.2,4.2-4.2h45.7c2.3,0,4.2,1.9,4.2,4.2v7.8H59H7.9z"/>
				</g>
			</g>
		</g>
	</g>
	<g id="Layer_11" class="st1">
		<g>
			<g id="XMLID_4_">
				<g>
					<path class="st2" d="M82.3,18.5v43.7h-1.5v-1.5v-53V6.2h4.4c3.4,0,6.2,2.8,6.2,6.2s-2.8,6.2-6.2,6.2H82.3z"/>
					<polygon class="st2" points="56.8,84.1 50.2,93.2 43.5,84.1 49.4,84.1 49.4,80.1 50.9,80.1 50.9,84.1 					"/>
					<path class="st2" d="M26.4,14.8v7l6.5-7H26.4z M26.4,77.3h6.4l-6.4-6.9C26.4,70.4,26.4,77.3,26.4,77.3z M24.9,13.3h49.3v47.4
						h6.7v1.5h-6.7v16.5H24.9V62.2v-1.5V13.3z M66.1,14.8l6.5,7v-7H66.1z M66.3,77.3h6.4v-6.9L66.3,77.3z"/>
					<path class="st2" d="M18.7,7.7v53h6.2v1.5h-7.7V18.5h-3.4c-3.4,0-6.2-2.8-6.2-6.2s2.8-6.2,6.2-6.2h67v1.5
						C80.8,7.7,18.7,7.7,18.7,7.7z"/>
				</g>
			</g>
		</g>
	</g>
	<g class="st1">
		<g>
			<path class="st5" d="M59.6,48.1c-0.3,3.5-3,4.5-6.7,4.7l0,3.7h-2.2l0-3.7c-0.6,0-1.2,0-1.8,0l0,3.7l-2.2,0l0-3.7
				c-0.5,0-1.1,0-1.6,0l-2.9,0l0.3-1.8l0.1-0.8h6.3c0.1,0,0.3,0,0.4,0c0.1,0,0.3,0,0.4,0c2,0,5.5-0.1,5.5-2.5c0-0.9-0.4-1.5-1.1-1.8
				c0.9-0.2,1.7-0.5,2.3-0.9c0.4-0.2,0.7-0.5,1-0.8c0.1-0.1,0.2-0.2,0.2-0.2C59,44.6,59.8,45.8,59.6,48.1z"/>
		</g>
		<g>
			<g>
				<g>
					<path class="st5" d="M58.3,39.2c0-0.2,0-0.4-0.1-0.6c-0.5-2.2-2.7-2.9-5.3-3.2l0-3.7h-2.2l0,3.6c-0.6,0-1.2,0-1.8,0l0-3.6
						l-2.2,0l0,3.7c-0.3,0-0.7,0-1,0c-0.1,0-0.3,0-0.4,0v0l-3.1,0v2.4c0,0,0.7,0,1.2,0c0.2,0,0.4,0,0.4,0c0.9,0,1.2,0.5,1.3,1v4.2
						l0,5.8h3.9l0-4.1c0,0,0,0,0,0c0,0,0,0,0,0c0.2,0,1.1,0.1,2.3,0.1c0.3,0,0.7,0,1,0c1.3-0.1,2.7-0.3,3.8-1
						c0.3-0.2,0.6-0.4,0.9-0.7C57.8,42.2,58.4,40.7,58.3,39.2z M49.9,42.4c-0.4,0-0.7,0-1,0l0-4.5c0.3,0,0.7,0,1.2,0
						c1.7,0,4,0.2,4,2.3C54.1,42.2,51.5,42.4,49.9,42.4z"/>
				</g>
			</g>
		</g>
	</g>
</g>
<g id="Layer_2" class="st0">
	<g class="st1">
		<g id="XMLID_7_">
			<g>
				<path class="st2" d="M89.8,16.3l-11.7,6.6c-0.2,0.1-0.4,0.5-0.4,0.8v14.2l11.7-6.6c0.2-0.1,0.4-0.5,0.4-0.8V16.3z M76.2,61.1
					V39.4c-0.1,0-0.3-0.1-0.4-0.1l-12-6.7c-0.6-0.4-1.1-1.2-1.1-2V26l-17,8.8L45,33.5l17.7-9.1v-8.4c0-0.9,0.6-1.3,1.2-1.3
					c0.1,0,0.2,0,0.3,0l12.9-7l12.9,7c0.3-0.1,0.6,0,0.8,0.1c0.4,0.2,0.6,0.6,0.6,1.1v14.4c0,0.8-0.5,1.6-1.1,2l-12,6.7
					c-0.1,0.1-0.3,0.1-0.4,0.2v21.7H76.2z M76.9,9.4l-11.3,6.2l10.9,6.1c0.2,0.1,0.3,0.2,0.4,0.3c0.1-0.1,0.3-0.3,0.4-0.3l10.9-6.1
					L76.9,9.4z"/>
				<path class="st2" d="M73.4,74.1c0,10.1-8.2,18.3-18.3,18.3c0,0,0,0,0,0c0,0,0,0,0,0c-0.1,0-0.1,0-0.2,0
					c-8.6-0.1-15.7-6.1-17.6-14.1l1.4-0.3c1.1,4.5-1.6-7-1.6-7c1.4-8.6,8.9-15.2,17.9-15.3c0.1,0,0.1,0,0.2,0c0,0,0,0,0,0
					c0,0,0,0,0,0c6.4,0,12.1,3.3,15.3,8.3l5.8-2.9h1.4V62l-6.5,3.3C72.6,67.9,73.4,70.9,73.4,74.1z"/>
				<path class="st2" d="M42.9,44.7c0.3-0.2,0.7-0.8,0.7-1.2V24.3c0,0,0,0,0-0.1l-15.9,8.9C27.3,33.4,27,34,27,34.4v19.2
					c0,0,0,0,0,0.1L42.9,44.7z M36.7,75.2c0-0.4,0-0.7,0-1.1c0-1,0.1-2.1,0.3-3.1l1.4,0.2c-0.2,0.9-0.2,1.9-0.2,2.8
					c0,1.4,0.2,2.7,0.5,3.9l-1.4,0.3c-0.1-0.4-0.2-0.9-0.3-1.3L16.6,62.8V50.2L9,45.9c-0.8-0.4-1.4-1.5-1.4-2.4V24.3
					c0-0.9,0.5-1.5,1.3-1.5c0.1,0,0.3,0,0.4,0.1l17-9.2l17,9.2c0.4-0.1,0.7-0.1,1,0.1c0.4,0.2,0.7,0.7,0.7,1.3v9.2l0.6,1.2L45,35.1
					v8.4c0,0.9-0.6,2-1.4,2.4l-15.9,8.9c-0.3,0.1-0.5,0.2-0.8,0.2c-0.2,0-0.4-0.1-0.6-0.2c-0.2,0.1-0.4,0.2-0.6,0.2
					c-0.3,0-0.5-0.1-0.8-0.2L18,51v11.1L36.7,75.2z M26.3,32.6c0.2-0.2,0.4-0.5,0.7-0.6l14.8-8.3l-15.5-8.4l-15.5,8.4L25.6,32
					C25.9,32.1,26.1,32.3,26.3,32.6z"/>
			</g>
		</g>
	</g>
	<g class="st1">
		<g>
			<path class="st5" d="M66.1,78.6c-0.4,4-3.4,5.1-7.6,5.3l0,4.2H56l0-4.1c-0.7,0-1.3,0-2,0l0,4.2l-2.5,0l0-4.2c-0.6,0-1.2,0-1.8,0
				l-3.3,0l0.4-2.1l0.1-0.9H54c0.1,0,0.3,0,0.5,0c0.1,0,0.3,0,0.5,0c2.2,0,6.2-0.1,6.2-2.8c0-1-0.5-1.7-1.2-2.1c1-0.2,1.9-0.5,2.6-1
				c0.4-0.2,0.8-0.5,1.2-0.9c0.1-0.1,0.2-0.2,0.3-0.3C65.5,74.7,66.4,76.1,66.1,78.6z"/>
		</g>
		<g>
			<g>
				<g>
					<path class="st5" d="M64.7,68.6c0-0.3-0.1-0.5-0.1-0.7c-0.6-2.4-3-3.3-6-3.6l0-4.2h-2.5l0,4c-0.7,0-1.3,0-2,0l0-4.1l-2.5,0
						l0,4.2c-0.4,0-0.8,0-1.2,0c-0.1,0-0.3,0-0.4,0v0l-3.5,0V67c0,0,0.8,0,1.4,0c0.3,0,0.5,0,0.5,0c1,0,1.3,0.6,1.5,1.1v4.7l0,6.6
						H54l0-4.7c0,0,0,0,0,0c0,0,0,0,0,0c0.2,0,1.2,0.1,2.6,0.1c0.4,0,0.7,0,1.1,0c1.4-0.1,3-0.4,4.3-1.1c0.3-0.2,0.7-0.4,1-0.7
						C64.1,72,64.9,70.3,64.7,68.6z M55.2,72.2c-0.5,0-0.8,0-1.1,0l0-5.1c0.3,0,0.8,0,1.4,0c1.9,0,4.5,0.3,4.5,2.6
						C60,72,57,72.2,55.2,72.2z"/>
				</g>
			</g>
		</g>
	</g>
</g>
<g id="Layer_3_1_" class="st0">
	<g class="st1">
		<g id="XMLID_9_">
			<g>
				<path class="st2" d="M90.5,59.2v29.1H61.4V75.6h-2.3v-1.5h2.3V60.3l-10.2-9.5l-9.9,9.4l-1-1.1l9.8-9.4L39.4,40l1-1.1l10.6,9.8
					l10.3-9.8v-28h29.1V40H76.7v2.3h-1.5V40H62.4l-10.2,9.8l10.2,9.4h12.7v-1.8h1.5v1.8H90.5z M89,38.5v-6.7v-1.5V12.4H62.9v7.8h3.4
					v1.5h-3.4v16.7H89z"/>
				<path class="st2" d="M89,30.3v1.5h-4.8c-0.4,2.5-2.5,4.5-5.1,4.5c-2.9,0-5.2-2.3-5.2-5.2s2.3-5.2,5.2-5.2c2.6,0,4.8,1.9,5.1,4.5
					H89z M81.3,31c0-1.2-1-2.2-2.2-2.2c-1.2,0-2.2,1-2.2,2.2s1,2.2,2.2,2.2C80.2,33.3,81.3,32.3,81.3,31z"/>
				<path class="st6" d="M77.5,67.3c1.9,0.2,3.4,1.4,3.4,3c0,1.6-1.7,3-3.9,3h-5v-6H74v1.5h1.5v-1.5H76v1.5h1.5V67.3z"/>
				<path class="st6" d="M80.9,77.8c0,1.5-1.5,2.8-3.4,3v-2.1H76v2.1h-0.5v-2.1H74v2.1H72v-6h5v0.1C79.2,74.8,80.9,76.1,80.9,77.8z"
					/>
				<path class="st2" d="M79,30.3c0.4,0,0.7,0.3,0.7,0.7s-0.3,0.7-0.7,0.7c-0.4,0-0.7-0.3-0.7-0.7S78.6,30.3,79,30.3z"/>
				<rect x="75.2" y="51.3" class="st2" width="1.5" height="3"/>
				<rect x="75.2" y="45.3" class="st2" width="1.5" height="3"/>
				<path class="st2" d="M71.5,15.8c2.9,0,5.2,2.3,5.2,5.2c0,2.9-2.3,5.2-5.2,5.2c-2.6,0-4.8-1.9-5.1-4.5v-1.5
					C66.7,17.7,68.9,15.8,71.5,15.8z M73.7,21c0-1.2-1-2.2-2.2-2.2c-1.2,0-2.2,1-2.2,2.2c0,1.2,1,2.2,2.2,2.2
					C72.7,23.2,73.7,22.2,73.7,21z"/>
				<path class="st2" d="M71.5,20.2c0.4,0,0.7,0.3,0.7,0.7c0,0.4-0.3,0.7-0.7,0.7c-0.4,0-0.7-0.3-0.7-0.7
					C70.7,20.6,71.1,20.2,71.5,20.2z"/>
				<rect x="57.8" y="24.7" class="st2" width="3" height="1.5"/>
				<rect x="53.1" y="74.1" class="st2" width="3" height="1.5"/>
				<rect x="51.8" y="24.7" class="st2" width="3" height="1.5"/>
				<rect x="47.1" y="74.1" class="st2" width="3" height="1.5"/>
				<rect x="45.8" y="24.7" class="st2" width="3" height="1.5"/>
				<path class="st2" d="M44,74.1v1.5h-2.7v12.7H12.2V59.2h12.4v-1.8h1.5v1.8h14.1l0,0l1,1.1v13.8H44z M39.8,86.8v-6.7v-1.5V60.7
					H13.7v7.8h3.4c0.4-2.5,2.5-4.5,5.1-4.5c2.9,0,5.2,2.3,5.2,5.2c0,2.9-2.3,5.2-5.2,5.2c-2.6,0-4.8-1.9-5.1-4.5h-3.4v16.7H39.8z
					 M24.5,69.3c0-1.2-1-2.2-2.2-2.2S20,68,20,69.3c0,1.2,1,2.2,2.2,2.2S24.5,70.5,24.5,69.3z"/>
				<path class="st2" d="M42.7,24.7v1.5h-2.3v12.7l-1,1.1H26.1v2.3h-1.5V40H11.4V10.9h29.1v13.8H42.7z"/>
				<path class="st2" d="M39.8,78.6v1.5H35c-0.4,2.5-2.5,4.5-5.1,4.5c-2.9,0-5.2-2.3-5.2-5.2c0-2.9,2.3-5.2,5.2-5.2
					c2.6,0,4.8,1.9,5.1,4.5H39.8z M32.1,79.3c0-1.2-1-2.2-2.2-2.2c-1.2,0-2.2,1-2.2,2.2c0,1.2,1,2.2,2.2,2.2
					C31,81.6,32.1,80.6,32.1,79.3z"/>
				<path class="st6" d="M27.5,19c1.9,0.2,3.4,1.4,3.4,3c0,1.6-1.7,3-3.9,3h-5v-6H24v1.5h1.5V19H26v1.5h1.5V19z"/>
				<path class="st6" d="M30.9,29.5c0,1.5-1.5,2.8-3.4,3v-2.1H26v2.1h-0.5v-2.1H24v2.1H22v-6h5v0.1C29.2,26.5,30.9,27.8,30.9,29.5z"
					/>
				<path class="st2" d="M29.8,78.6c0.4,0,0.7,0.3,0.7,0.7c0,0.4-0.3,0.7-0.7,0.7c-0.4,0-0.7-0.3-0.7-0.7
					C29.1,78.9,29.4,78.6,29.8,78.6z"/>
				<rect x="24.6" y="51.3" class="st2" width="1.5" height="3"/>
				<rect x="24.6" y="45.3" class="st2" width="1.5" height="3"/>
				<path class="st2" d="M22.3,68.5c0.4,0,0.7,0.3,0.7,0.7c0,0.4-0.3,0.7-0.7,0.7s-0.7-0.3-0.7-0.7C21.5,68.9,21.9,68.5,22.3,68.5z"
					/>
			</g>
		</g>
	</g>
	<g class="st1">
		<g>
			<path class="st5" d="M85.1,77.8c-0.3,3.3-2.8,4.2-6.3,4.4l0,3.5h-2.1l0-3.4c-0.5,0-1.1,0-1.7,0l0,3.4l-2.1,0l0-3.5
				c-0.5,0-1,0-1.5,0l-2.7,0l0.3-1.7l0.1-0.7h5.9c0.1,0,0.2,0,0.4,0c0.1,0,0.2,0,0.4,0c1.8,0,5.1-0.1,5.1-2.3c0-0.8-0.4-1.4-1-1.7
				c0.8-0.2,1.5-0.4,2.1-0.8c0.3-0.2,0.7-0.4,1-0.7c0.1-0.1,0.1-0.1,0.2-0.2C84.6,74.6,85.3,75.7,85.1,77.8z"/>
		</g>
		<g>
			<g>
				<g>
					<path class="st5" d="M83.9,69.6c0-0.2,0-0.4-0.1-0.6c-0.5-2-2.5-2.7-5-2.9l0-3.4h-2.1l0,3.3c-0.6,0-1.1,0-1.7,0l0-3.3l-2.1,0
						l0,3.4c-0.3,0-0.6,0-1,0c-0.1,0-0.2,0-0.4,0v0l-2.9,0v2.2c0,0,0.7,0,1.1,0c0.2,0,0.4,0,0.4,0c0.8,0,1.1,0.5,1.2,0.9V73l0,5.4
						h3.6l0-3.8c0,0,0,0,0,0c0,0,0,0,0,0c0.2,0,1,0.1,2.1,0.1c0.3,0,0.6,0,0.9,0c1.2-0.1,2.5-0.3,3.5-0.9c0.3-0.1,0.6-0.4,0.8-0.6
						C83.4,72.3,84,70.9,83.9,69.6z M76.1,72.6c-0.4,0-0.7,0-0.9,0l0-4.2c0.3,0,0.7,0,1.1,0c1.5,0,3.7,0.2,3.7,2.1
						C80,72.4,77.6,72.6,76.1,72.6z"/>
				</g>
			</g>
		</g>
	</g>
	<g class="st1">
		<g>
			<path class="st5" d="M34.1,29.2c-0.3,3.3-2.8,4.2-6.3,4.4l0,3.5h-2.1l0-3.4c-0.5,0-1.1,0-1.7,0l0,3.4l-2.1,0l0-3.5
				c-0.5,0-1,0-1.5,0l-2.7,0l0.3-1.7l0.1-0.7h5.9c0.1,0,0.2,0,0.4,0c0.1,0,0.2,0,0.4,0c1.8,0,5.1-0.1,5.1-2.3c0-0.8-0.4-1.4-1-1.7
				c0.8-0.2,1.5-0.4,2.1-0.8c0.3-0.2,0.7-0.4,1-0.7c0.1-0.1,0.1-0.1,0.2-0.2C33.6,25.9,34.3,27.1,34.1,29.2z"/>
		</g>
		<g>
			<g>
				<g>
					<path class="st5" d="M33,20.9c0-0.2,0-0.4-0.1-0.6c-0.5-2-2.5-2.7-5-2.9l0-3.4h-2.1l0,3.3c-0.6,0-1.1,0-1.7,0l0-3.3l-2.1,0
						l0,3.4c-0.3,0-0.6,0-1,0c-0.1,0-0.2,0-0.4,0v0l-2.9,0v2.2c0,0,0.7,0,1.1,0c0.2,0,0.4,0,0.4,0c0.8,0,1.1,0.5,1.2,0.9v3.9l0,5.4
						h3.6l0-3.8c0,0,0,0,0,0c0,0,0,0,0,0c0.2,0,1,0.1,2.1,0.1c0.3,0,0.6,0,0.9,0c1.2-0.1,2.5-0.3,3.5-0.9c0.3-0.1,0.6-0.4,0.8-0.6
						C32.4,23.7,33.1,22.3,33,20.9z M25.1,23.9c-0.4,0-0.7,0-0.9,0l0-4.2c0.3,0,0.7,0,1.1,0c1.5,0,3.7,0.2,3.7,2.1
						C29.1,23.7,26.7,23.9,25.1,23.9z"/>
				</g>
			</g>
		</g>
	</g>
</g>
<g id="Layer_4_1_" class="st0">
	<g class="st1">
		<g>
			<g id="XMLID_1_">
				<g>
					<path class="st2" d="M80.8,58c1.4,0,2.5,1.1,2.5,2.5c0,1.4-1.1,2.5-2.5,2.5c-1.4,0-2.5-1.1-2.5-2.5C78.3,59.1,79.4,58,80.8,58z
						"/>
					<path class="st2" d="M77.9,27.9c1.4,0,2.5,1.1,2.5,2.5c0,1.4-1.1,2.5-2.5,2.5c-1.4,0-2.5-1.1-2.5-2.5
						C75.4,29.1,76.5,27.9,77.9,27.9z"/>
					<path class="st2" d="M81.7,47.2c-0.4,5.8-5.2,10.4-11.1,10.4c-6.1,0-11.1-5-11.1-11.1s5-11.1,11.1-11.1
						c5.9,0,10.7,4.6,11.1,10.4h6.5v-26c0-1.1-0.8-1.9-1.8-2.2l0.2-1.4c1.7,0.3,3,1.8,3,3.6v27.4h-1.4H81.7z"/>
					<path class="st2" d="M67,25.5c1.4,0,2.5,1.1,2.5,2.5c0,1.4-1.1,2.5-2.5,2.5c-1.4,0-2.5-1.1-2.5-2.5
						C64.6,26.6,65.7,25.5,67,25.5z"/>
					<path class="st2" d="M63.6,60c1.4,0,2.5,1.1,2.5,2.5c0,1.4-1.1,2.5-2.5,2.5c-1.4,0-2.5-1.1-2.5-2.5C61.1,61.2,62.2,60,63.6,60z
						"/>
					<path class="st2" d="M41,72.4c-4,0-7.4-2.6-8.7-6.2l1.4-0.4c1.1,3,4,5.1,7.4,5.1c4.3,0,7.8-3.5,7.8-7.8v-1.9
						c-0.2-2.2-1.3-4.1-3.1-5.4c-0.5,0.7-1.3,1.2-2.3,1.2c-1.5,0-2.8-1.2-2.8-2.8s1.2-2.8,2.8-2.8s2.8,1.2,2.8,2.8
						c0,0.1,0,0.1,0,0.2c1,0.7,1.9,1.6,2.6,2.6l0-21.6c-1.5,2.3-3.9,3.9-6.8,4.3c-0.3,1.2-1.4,2.1-2.7,2.1c-1.5,0-2.8-1.2-2.8-2.8
						c0-1.5,1.2-2.8,2.8-2.8c1.3,0,2.3,0.8,2.7,2c3.9-0.5,6.8-3.8,6.8-7.8c0-0.7-0.1-1.3-0.2-2l1.4-0.3c0.2,0.7,0.3,1.5,0.3,2.3
						l0,9.7h2.4v-3.2H58v1.4h-3.8v3.2h-3.8v3.7h5v1.4h-5l0,3.7h3.9v3.2H58v1.4h-5.3v-3.2h-2.4l0,9.4c0,0.3,0,0.5,0,0.8h0v1.1
						C50.3,68.2,46.2,72.4,41,72.4z"/>
					<path class="st2" d="M31.9,64.6c-0.1-0.5-0.1-1-0.1-1.5c0-0.8,0.1-1.5,0.3-2.3l1.4,0.4c-0.2,0.6-0.2,1.3-0.2,1.9
						c0,0.9,0.2,1.9,0.5,2.7l-1.4,0.4c-4.3-0.8-7.6-4.6-7.6-9.1c0-0.5,0-0.9,0.1-1.4c-2.5-1.6-4.3-4.4-4.6-7.5l1.4-0.1
						c0.4,4.2,3.9,7.6,8.2,7.9c0.3-1.2,1.4-2,2.7-2c1.5,0,2.8,1.2,2.8,2.8c0,1.5-1.2,2.8-2.8,2.8c-1.3,0-2.4-0.9-2.7-2.1
						c-1.3-0.1-2.5-0.4-3.6-0.9c0,0.2,0,0.4,0,0.6C26.2,60.6,28.6,63.7,31.9,64.6z"/>
					<path class="st2" d="M41.1,22.6c-4.1,0-7.5,3.2-7.8,7.2c1.1,0.3,2,1.4,2,2.7c0,1.5-1.2,2.8-2.8,2.8s-2.8-1.2-2.8-2.8
						c0-1.3,0.9-2.4,2.1-2.7c0-0.3,0.1-0.6,0.1-0.9c-3.3,0.9-5.7,4-5.7,7.5c0,1.3,0.3,2.6,1,3.8c0.3-0.1,0.7-0.2,1.1-0.2
						c1.5,0,2.8,1.2,2.8,2.8c0,1.5-1.2,2.8-2.8,2.8c-1.5,0-2.8-1.2-2.8-2.8c0-0.6,0.2-1.2,0.6-1.7c-0.2-0.3-0.4-0.7-0.5-1.1
						c-2.1,1.4-3.5,3.7-3.8,6.2L20.3,46c0.4-3.1,2.1-5.8,4.8-7.4c-0.2-0.7-0.3-1.4-0.3-2.2c0-4.5,3.2-8.3,7.6-9.1
						c1.3-3.6,4.7-6.2,8.7-6.2c2.6,0,4.9,1,6.6,2.7c1.2,1.2,2,2.6,2.4,4.3l-1.4,0.3C47.8,25.1,44.7,22.6,41.1,22.6z"/>
					<path class="st2" d="M21.7,47.2c0,0.3,0,0.6,0,0.9l-1.4,0.1c0-0.1,0-0.2,0-0.3h-6.7v26.3h74.6V47.2h1.4v27.1h4.8v5.2
						c0,2.8-2.2,5-5,5h-77c-2.8,0-5-2.2-5-5v-5.2h4.8V19.8c0-2,1.6-3.6,3.6-3.6h70.2c0.2,0,0.4,0,0.7,0.1l-0.2,1.4
						c-0.1,0-0.3,0-0.4,0H15.8c-1.2,0-2.2,1-2.2,2.2v26.7h6.7c0-0.2,0-0.3,0.1-0.5l1.4,0.1C21.7,46.5,21.7,46.9,21.7,47.2z
						 M55.4,80.1v-1.4h-9.1v1.4H55.4z"/>
				</g>
			</g>
		</g>
	</g>
	<g class="st1">
		<g>
			<path class="st5" d="M75.4,48.3c-0.2,1.9-1.6,2.5-3.7,2.6l0,2h-1.2l0-2c-0.3,0-0.6,0-1,0l0,2l-1.2,0l0-2c-0.3,0-0.6,0-0.9,0
				l-1.6,0l0.2-1l0.1-0.4h3.5c0.1,0,0.1,0,0.2,0c0.1,0,0.1,0,0.2,0c1.1,0,3,0,3-1.3c0-0.5-0.2-0.8-0.6-1c0.5-0.1,0.9-0.3,1.3-0.5
				c0.2-0.1,0.4-0.3,0.6-0.4c0,0,0.1-0.1,0.1-0.1C75.1,46.4,75.5,47.1,75.4,48.3z"/>
		</g>
		<g>
			<g>
				<g>
					<path class="st5" d="M74.7,43.5c0-0.1,0-0.2-0.1-0.4c-0.3-1.2-1.5-1.6-2.9-1.7l0-2h-1.2l0,2c-0.3,0-0.7,0-1,0l0-2l-1.2,0l0,2
						c-0.2,0-0.4,0-0.6,0c-0.1,0-0.1,0-0.2,0v0l-1.7,0v1.3c0,0,0.4,0,0.7,0c0.1,0,0.2,0,0.2,0c0.5,0,0.7,0.3,0.7,0.5v2.3l0,3.2h2.1
						l0-2.3c0,0,0,0,0,0c0,0,0,0,0,0c0.1,0,0.6,0.1,1.2,0.1c0.2,0,0.4,0,0.6,0c0.7,0,1.5-0.2,2.1-0.5c0.2-0.1,0.3-0.2,0.5-0.4
						C74.4,45.1,74.8,44.3,74.7,43.5z M70.1,45.2c-0.2,0-0.4,0-0.5,0l0-2.4c0.2,0,0.4,0,0.7,0c0.9,0,2.2,0.1,2.2,1.2
						C72.4,45.1,71,45.2,70.1,45.2z"/>
				</g>
			</g>
		</g>
	</g>
</g>
<g id="Layer_5_1_" class="st0">
	<g id="Layer_6_1_" class="st1">
		<g>
			<g>
				<path class="st5" d="M82.4,23.9c-0.2,1.9-1.6,2.5-3.7,2.6l0,2h-1.2l0-2c-0.3,0-0.6,0-1,0l0,2l-1.2,0l0-2c-0.3,0-0.6,0-0.9,0
					l-1.6,0l0.2-1l0.1-0.4h3.5c0.1,0,0.1,0,0.2,0c0.1,0,0.1,0,0.2,0c1.1,0,3,0,3-1.3c0-0.5-0.2-0.8-0.6-1c0.5-0.1,0.9-0.3,1.3-0.5
					c0.2-0.1,0.4-0.3,0.6-0.4c0,0,0.1-0.1,0.1-0.1C82.1,21.9,82.6,22.6,82.4,23.9z"/>
			</g>
			<g>
				<g>
					<g>
						<path class="st5" d="M81.7,19c0-0.1,0-0.2-0.1-0.4c-0.3-1.2-1.5-1.6-2.9-1.7l0-2h-1.2l0,2c-0.3,0-0.7,0-1,0l0-2l-1.2,0l0,2
							c-0.2,0-0.4,0-0.6,0c-0.1,0-0.1,0-0.2,0v0l-1.7,0v1.3c0,0,0.4,0,0.7,0c0.1,0,0.2,0,0.2,0c0.5,0,0.7,0.3,0.7,0.5V21l0,3.2h2.1
							l0-2.3c0,0,0,0,0,0c0,0,0,0,0,0c0.1,0,0.6,0.1,1.2,0.1c0.2,0,0.4,0,0.6,0c0.7,0,1.5-0.2,2.1-0.5c0.2-0.1,0.3-0.2,0.5-0.4
							C81.4,20.6,81.8,19.8,81.7,19z M77.1,20.8c-0.2,0-0.4,0-0.5,0l0-2.4c0.2,0,0.4,0,0.7,0c0.9,0,2.2,0.1,2.2,1.2
							C79.5,20.7,78,20.8,77.1,20.8z"/>
					</g>
				</g>
			</g>
		</g>
		<g>
			<g>
				<path class="st5" d="M26.3,74.1c-0.2,1.9-1.6,2.5-3.7,2.6l0,2h-1.2l0-2c-0.3,0-0.6,0-1,0l0,2l-1.2,0l0-2c-0.3,0-0.6,0-0.9,0
					l-1.6,0l0.2-1l0.1-0.4h3.5c0.1,0,0.1,0,0.2,0c0.1,0,0.1,0,0.2,0c1.1,0,3,0,3-1.3c0-0.5-0.2-0.8-0.6-1c0.5-0.1,0.9-0.3,1.3-0.5
					c0.2-0.1,0.4-0.3,0.6-0.4c0,0,0.1-0.1,0.1-0.1C26,72.2,26.4,72.9,26.3,74.1z"/>
			</g>
			<g>
				<g>
					<g>
						<path class="st5" d="M25.6,69.2c0-0.1,0-0.2-0.1-0.4c-0.3-1.2-1.5-1.6-2.9-1.7l0-2h-1.2l0,2c-0.3,0-0.7,0-1,0l0-2l-1.2,0l0,2
							c-0.2,0-0.4,0-0.6,0c-0.1,0-0.1,0-0.2,0v0l-1.7,0v1.3c0,0,0.4,0,0.7,0c0.1,0,0.2,0,0.2,0c0.5,0,0.7,0.3,0.7,0.5v2.3l0,3.2h2.1
							l0-2.3c0,0,0,0,0,0c0,0,0,0,0,0c0.1,0,0.6,0.1,1.2,0.1c0.2,0,0.4,0,0.6,0c0.7,0,1.5-0.2,2.1-0.5c0.2-0.1,0.3-0.2,0.5-0.4
							C25.3,70.9,25.7,70.1,25.6,69.2z M21,71c-0.2,0-0.4,0-0.5,0l0-2.4c0.2,0,0.4,0,0.7,0c0.9,0,2.2,0.1,2.2,1.2
							C23.3,70.9,21.9,71,21,71z"/>
					</g>
				</g>
			</g>
		</g>
	</g>
	<g class="st1">
		<g id="XMLID_6_">
			<g>
				<path class="st2" d="M89.5,49.8c0,0.6,0,1.2,0,1.8l-1.3-0.1c0-0.6,0-1.2,0-1.8c0-1.1-0.1-2.3-0.2-3.4l1.3-0.1
					C89.4,47.5,89.5,48.7,89.5,49.8z"/>
				<path class="st2" d="M87.6,56.7l1.3,0.2c-0.3,1.7-0.8,3.5-1.4,5.2l-1.2-0.4C86.8,60.1,87.2,58.4,87.6,56.7z"/>
				<path class="st2" d="M88.5,41.1l-1.3,0.3c-0.4-1.7-0.9-3.3-1.6-4.9l1.2-0.5C87.5,37.6,88,39.3,88.5,41.1z"/>
				<path class="st2" d="M84.2,66.4l1.1,0.6c-0.8,1.6-1.8,3.1-2.8,4.6l-1-0.8C82.5,69.4,83.4,67.9,84.2,66.4z"/>
				<path class="st2" d="M78.5,16.6c1.4,0.2,2.5,1.1,2.5,2.2c0,1.2-1.3,2.2-2.9,2.2h-3.8v-4.4h1.4v1.1H77v-1.1h0.3v1.1h1.3V16.6z"/>
				<path class="st2" d="M78.2,74.8l0.9,0.9c-1.2,1.3-2.6,2.5-4,3.6l-0.8-1C75.7,77.2,77,76,78.2,74.8z"/>
				<path class="st2" d="M77,25.3h-1.3v1.5h-1.4v-4.5h3.8v0.1c1.6,0,2.9,1,2.9,2.2c0,1.1-1.1,2-2.5,2.2v-1.5h-1.3v1.5H77V25.3z"/>
				<path class="st2" d="M87.5,21.7c0,3.2-1.5,6.1-3.9,8c0.3,0.5,0.6,1,0.9,1.5l-1.1,0.6c-0.3-0.5-0.5-0.9-0.8-1.4
					c-1.6,1-3.4,1.5-5.3,1.5c-5.7,0-10.3-4.6-10.3-10.3c0-1.5,0.3-3,0.9-4.3c-0.6-0.3-1.1-0.5-1.7-0.8l0.5-1.2
					c0.6,0.3,1.2,0.5,1.8,0.8c1.8-2.9,5-4.9,8.7-4.9C82.9,11.4,87.5,16,87.5,21.7z"/>
				<path class="st2" d="M70.1,81.1l0.6,1.1c-1.5,0.9-3.2,1.7-4.8,2.3l-0.5-1.2C67.1,82.7,68.6,82,70.1,81.1z"/>
				<path class="st2" d="M69.1,66.5c3-0.8,5.1-3.6,5.1-6.7c0-0.2,0-0.4,0-0.5c-1,0.5-2.1,0.7-3.2,0.8c-0.3,1.1-1.2,1.9-2.4,1.9
					c-1.4,0-2.5-1.1-2.5-2.5c0-1.4,1.1-2.5,2.5-2.5c1.1,0,2.1,0.8,2.4,1.8c3.6-0.2,6.5-2.9,7.2-6.3l1.3,0.2c-0.5,2.5-2,4.6-4,5.9
					c0.1,0.4,0.1,0.8,0.1,1.2c0,4-2.9,7.4-6.8,8.2c-0.1,0.4-0.3,0.8-0.5,1.2l-1.1-0.6c0.5-1,0.8-2.1,0.8-3.3c0-0.6-0.1-1.2-0.2-1.7
					l1.2-0.3c0.2,0.7,0.3,1.4,0.3,2.1C69.2,65.6,69.2,66.1,69.1,66.5z"/>
				<path class="st2" d="M68.7,33.1c3.9,0.7,6.8,4.2,6.8,8.2c0,0.7-0.1,1.3-0.2,1.9c2.7,1.7,4.3,4.6,4.3,7.7c0,0.6-0.1,1.2-0.2,1.7
					l-1.3-0.2c0.1-0.5,0.1-1,0.1-1.5c0-2.6-1.3-5-3.4-6.5c-0.1,0.3-0.3,0.6-0.5,1c0.3,0.4,0.5,0.9,0.5,1.5c0,1.4-1.1,2.5-2.5,2.5
					c-1.4,0-2.5-1.1-2.5-2.5c0-1.4,1.1-2.5,2.5-2.5c0.3,0,0.7,0.1,0.9,0.2c0.6-1,0.9-2.2,0.9-3.4c0-3.2-2.1-5.9-5.1-6.7
					c0,0.3,0.1,0.5,0.1,0.8c1.1,0.3,1.9,1.2,1.9,2.4c0,1.4-1.1,2.5-2.5,2.5c-1.4,0-2.5-1.1-2.5-2.5c0-1.1,0.8-2.1,1.8-2.4
					c-0.1-1-0.4-2-0.8-2.8l1.1-0.6C68.4,32.3,68.6,32.7,68.7,33.1z"/>
				<path class="st2" d="M61.9,13.8L61.6,15c-1.5-0.4-3.1-0.7-4.7-0.9l0.2-1.3C58.7,13,60.3,13.3,61.9,13.8z"/>
				<path class="st2" d="M60.6,84.9l0.3,1.3c-1.7,0.4-3.5,0.7-5.3,0.9l-0.1-1.3C57.2,85.6,58.9,85.3,60.6,84.9z"/>
				<path class="st2" d="M53.9,40.3l0,19.4c0.6-0.9,1.4-1.7,2.3-2.3c0,0,0-0.1,0-0.2c0-1.4,1.1-2.5,2.5-2.5c1.4,0,2.5,1.1,2.5,2.5
					c0,1.4-1.1,2.5-2.5,2.5c-0.8,0-1.6-0.4-2-1.1c-1.6,1.2-2.5,2.9-2.7,4.8v1.7c0,3.9,3.1,7,7,7c2.7,0,5-1.5,6.2-3.7l1.1,0.6
					c-1.4,2.6-4.1,4.4-7.3,4.4c-4.6,0-8.3-3.7-8.3-8.3v-1h0c0-0.2,0-0.5,0-0.7l0-27.5c0,0,0,0,0,0c0-4.6,3.7-8.3,8.3-8.3
					c3.1,0,5.9,1.8,7.3,4.4L67,32.5c-1.2-2.2-3.5-3.7-6.2-3.7c-3.9,0-7,3.1-7,7c0,3.6,2.7,6.5,6.1,6.9c0.3-1,1.3-1.8,2.4-1.8
					c1.4,0,2.5,1.1,2.5,2.5c0,1.4-1.1,2.5-2.5,2.5c-1.2,0-2.1-0.8-2.4-1.9C57.4,43.9,55.2,42.4,53.9,40.3z"/>
				<path class="st2" d="M52.1,12.5v1.3c-1.6,0-3.2,0.1-4.8,0.3l-0.2-1.3C48.8,12.6,50.4,12.5,52.1,12.5z"/>
				<path class="st2" d="M50.4,85.9l-0.1,1.3c-1.8-0.1-3.6-0.3-5.3-0.6l0.2-1.3C46.9,85.6,48.6,85.8,50.4,85.9z"/>
				<path class="st2" d="M42.3,13.8l0.3,1.2c-1.5,0.4-3.1,0.9-4.5,1.6l-0.5-1.2C39.1,14.8,40.7,14.2,42.3,13.8z"/>
				<path class="st2" d="M43.4,28.2c4.6,0,8.3,3.7,8.3,8.3v0l0,27.5c0,0.2,0,0.5,0,0.7h0v1c0,4.6-3.7,8.3-8.3,8.3
					c-3.6,0-6.7-2.3-7.8-5.5l1.2-0.4c1,2.7,3.6,4.6,6.6,4.6c3.9,0,7-3.1,7-7v-1.7c-0.2-1.9-1.2-3.7-2.7-4.9c-0.5,0.6-1.2,1.1-2,1.1
					c-1.4,0-2.5-1.1-2.5-2.5c0-1.4,1.1-2.5,2.5-2.5c1.4,0,2.5,1.1,2.5,2.5c0,0.1,0,0.1,0,0.2c0.9,0.6,1.7,1.4,2.3,2.3l0-19.4
					c-1.3,2.1-3.5,3.5-6.1,3.8c-0.3,1.1-1.2,1.9-2.4,1.9c-1.4,0-2.5-1.1-2.5-2.5s1.1-2.5,2.5-2.5c1.1,0,2.1,0.8,2.4,1.8
					c3.4-0.4,6.1-3.4,6.1-6.9c0-3.9-3.1-7-7-7c-2.6,0-5,1.5-6.1,3.7l-1.1-0.6C37.5,30,40.3,28.2,43.4,28.2z"/>
				<path class="st2" d="M40.3,83.9l-0.4,1.2c-1.7-0.6-3.3-1.3-4.9-2.1l0.6-1.1C37.1,82.6,38.6,83.3,40.3,83.9z"/>
				<path class="st2" d="M37.3,33.2C36.8,34,36.5,35,36.4,36c1,0.3,1.8,1.3,1.8,2.4c0,1.4-1.1,2.5-2.5,2.5c-1.4,0-2.5-1.1-2.5-2.5
					c0-1.2,0.8-2.2,1.9-2.4c0-0.3,0.1-0.5,0.1-0.8c-2.9,0.8-5,3.4-5.1,6.4l-1.3,0c0.2-3.9,3-7.1,6.8-7.8c0.1-0.4,0.3-0.8,0.5-1.2
					L37.3,33.2z"/>
				<path class="st2" d="M31.9,45.1c1.4,0,2.5,1.1,2.5,2.5c0,1.4-1.1,2.5-2.5,2.5c-1.4,0-2.5-1.1-2.5-2.5c0-0.6,0.2-1.1,0.5-1.5
					c-0.2-0.3-0.3-0.6-0.5-0.9c-1.7,1.2-2.9,3-3.3,5l-1.3-0.3c0.5-2.5,2-4.6,4.1-6c-0.2-0.6-0.2-1.3-0.2-1.9c0-0.1,0-0.2,0-0.3
					l1.3,0c0,0.1,0,0.2,0,0.3c0,1.2,0.3,2.3,0.9,3.4C31.3,45.1,31.6,45.1,31.9,45.1z"/>
				<path class="st2" d="M33.1,17.7l0.7,1.1c-1.4,0.8-2.7,1.7-4,2.7l-0.8-1C30.3,19.5,31.7,18.5,33.1,17.7z"/>
				<path class="st2" d="M35.6,68.6c-3.9-0.7-6.8-4.2-6.8-8.2c0-0.4,0-0.8,0.1-1.2c-2.5-1.6-4.2-4.4-4.2-7.6c0-0.6,0.1-1.2,0.2-1.8
					l1.3,0.3c-0.1,0.5-0.1,1-0.1,1.5c0,4.1,3.2,7.5,7.3,7.8c0.3-1,1.3-1.8,2.4-1.8c1.4,0,2.5,1.1,2.5,2.5c0,1.4-1.1,2.5-2.5,2.5
					c-1.2,0-2.1-0.8-2.4-1.9c-1.1-0.1-2.2-0.3-3.2-0.8c0,0.2,0,0.4,0,0.5c0,3.2,2.1,5.9,5.1,6.7c-0.1-0.5-0.1-0.9-0.1-1.4
					c0-0.7,0.1-1.4,0.3-2.1l1.2,0.3c-0.1,0.6-0.2,1.1-0.2,1.7c0,0.8,0.2,1.7,0.4,2.4L35.6,68.6z"/>
				<path class="st2" d="M25.3,23.8l0.9,0.9c-1.1,1.1-2.2,2.4-3.1,3.7l-1-0.8C23.1,26.3,24.2,25,25.3,23.8z"/>
				<path class="st2" d="M31.6,71.9c0,2.3-0.7,4.3-2,6c0.5,0.4,1,0.8,1.5,1.2l-0.8,1c-0.5-0.4-1.1-0.8-1.6-1.2
					c-1.9,2-4.5,3.2-7.5,3.2c-5.7,0-10.3-4.6-10.3-10.3c0-4.1,2.5-7.7,6-9.3c-0.2-0.6-0.4-1.3-0.6-1.9l1.2-0.4
					c0.2,0.6,0.4,1.2,0.6,1.8c1-0.3,2-0.5,3.1-0.5C27,61.7,31.6,66.3,31.6,71.9z"/>
				<path class="st2" d="M19.4,31.8l1.1,0.6c-0.8,1.4-1.5,2.9-2,4.3l-1.2-0.5C17.9,34.8,18.6,33.2,19.4,31.8z"/>
				<path class="st2" d="M15.8,41l1.3,0.3c-0.4,1.6-0.6,3.1-0.8,4.7L15,45.9C15.2,44.3,15.4,42.6,15.8,41z"/>
				<path class="st2" d="M16.5,55.7l-1.3,0.2c-0.3-1.6-0.4-3.3-0.5-5l1.3,0C16.1,52.5,16.3,54.1,16.5,55.7z"/>
			</g>
		</g>
	</g>
</g>
<g id="Layer_7_1_">
	<g>
		<g id="XMLID_13_">
			<g>
				<path class="st2" d="M85.2,16.4c1.9,0,3.5,1.6,3.5,3.5v52.4h4.6v5c0,2.7-2.2,4.8-4.8,4.8h-74c-2.7,0-4.8-2.2-4.8-4.8v-5h4.6
					V19.8c0-1.9,1.6-3.5,3.5-3.5H85.2z M87.3,19.8c0-1.2-0.9-2.1-2.1-2.1H17.7c-1.2,0-2.1,0.9-2.1,2.1v52.4h71.7V19.8z M55.8,77.8
					v-1.4h-8.7v1.4H55.8z"/>
				<rect x="73.9" y="30.7" class="st2" width="6.6" height="35.4"/>
				<rect x="63.4" y="40.6" class="st2" width="6.6" height="25.6"/>
				<rect x="38.4" y="31.4" class="st2" width="25.8" height="1.4"/>
				<rect x="53.5" y="49.5" class="st2" width="6.6" height="16.6"/>
				<rect x="42.9" y="44.2" class="st2" width="6.6" height="21.9"/>
				<rect x="32.5" y="50.2" class="st2" width="6.6" height="16"/>
				<rect x="22.5" y="55.6" class="st2" width="6.6" height="10.6"/>
				<g>
					<g>
						<path class="st2" d="M33.8,35.6c-0.3,2.8-2.3,3.5-5.3,3.7l0,2.9h-1.8l0-2.9c-0.5,0-0.9,0-1.4,0l0,2.9l-1.8,0l0-2.9
							c-0.4,0-0.8,0-1.3,0l-2.3,0l0.2-1.5l0.1-0.6h5c0.1,0,0.2,0,0.3,0c0.1,0,0.2,0,0.3,0c1.5,0,4.3-0.1,4.3-1.9
							c0-0.7-0.3-1.2-0.9-1.4c0.7-0.2,1.3-0.4,1.8-0.7c0.3-0.2,0.6-0.4,0.8-0.6c0.1-0.1,0.1-0.1,0.2-0.2
							C33.4,32.9,34,33.9,33.8,35.6z"/>
					</g>
					<g>
						<g>
							<g>
								<path class="st2" d="M32.8,28.6c0-0.2,0-0.3-0.1-0.5c-0.4-1.7-2.1-2.3-4.2-2.5l0-2.9h-1.8l0,2.8c-0.5,0-0.9,0-1.4,0l0-2.8
									l-1.8,0l0,2.9c-0.3,0-0.5,0-0.8,0c-0.1,0-0.2,0-0.3,0v0l-2.4,0v1.9c0,0,0.6,0,0.9,0c0.2,0,0.3,0,0.3,0c0.7,0,0.9,0.4,1,0.8
									v3.3l0,4.6h3.1l0-3.3c0,0,0,0,0,0c0,0,0,0,0,0c0.1,0,0.9,0.1,1.8,0.1c0.3,0,0.5,0,0.8,0c1-0.1,2.1-0.3,3-0.8
									c0.2-0.1,0.5-0.3,0.7-0.5C32.4,31,33,29.8,32.8,28.6z M26.2,31.2c-0.3,0-0.6,0-0.8,0l0-3.5c0.2,0,0.6,0,1,0
									c1.3,0,3.2,0.2,3.2,1.8C29.5,31,27.5,31.2,26.2,31.2z"/>
							</g>
						</g>
					</g>
				</g>
			</g>
		</g>
	</g>
</g>
</svg>
