<?xml version="1.0" encoding="utf-8"?>
<!-- Generator: Adobe Illustrator 23.0.1, SVG Export Plug-In . SVG Version: 6.00 Build 0)  -->
<svg version="1.1" xmlns="http://www.w3.org/2000/svg" xmlns:xlink="http://www.w3.org/1999/xlink" x="0px" y="0px"
	 viewBox="0 0 100 100" style="enable-background:new 0 0 100 100;" xml:space="preserve">
<style type="text/css">
	.st0{display:none;}
	.st1{display:inline;}
	.st2{fill:#0CB315;}
	.st3{fill:#FFFFFF;}
	.st4{enable-background:new    ;}
	.st5{clip-path:url(#SVGID_2_);}
</style>
<g id="Layer_1" class="st0">
	<g class="st1">
		<g id="XMLID_11_">
			<g>
				<path class="st2" d="M82.53,48.7c8.18,0.4,14.7,7.18,14.7,15.45c0,8.53-6.94,15.47-15.48,15.47c-8.53,0-15.47-6.94-15.47-15.47
					c0-8.27,6.53-15.05,14.7-15.45V24.42v-1.55h6.71v1.55h-5.17V48.7z"/>
				<path class="st2" d="M60.59,31.91V10.65h-4.12v11.63h-1.55V10.81H50.8v11.48h-1.55V10.81h-4.12v16.98h-1.55V10.81h-5.03v25.67
					h5.8v1.55h-5.8v46.09h17.73V45.3L60.59,31.91z M19.01,24.42V48.7c8.18,0.4,14.7,7.18,14.7,15.45c0,8.53-6.94,15.47-15.48,15.47
					c-8.53,0-15.47-6.94-15.47-15.47c0-8.27,6.53-15.05,14.7-15.45V24.42h-5.62v-1.55h25.16V9.26h7.35h0.77h4.9h0.77h4.89V9.11h6.44
					v13.76h18.84v1.55H62.14v7.74l-4.31,13.38v40.13H37.01V38.03v-0.77V24.42H19.01z"/>
			</g>
		</g>
	</g>
</g>
<g id="Layer_2" class="st0">
	<g class="st1">
		<path class="st3" d="M90.87,68.19c-0.3,3.22-2.71,4.08-6.13,4.27l-0.01,3.39l-2.04,0l0.01-3.34c-0.53,0-1.07,0-1.63-0.01
			l-0.01,3.35l-2.04-0.01l0.01-3.39c-0.48,0-0.97-0.01-1.46-0.01l-2.66-0.01l0.28-1.68l0.12-0.72h5.8c0.1,0,0.22,0,0.36,0
			c0.11,0,0.23,0,0.36,0c1.78,0.02,5-0.07,5-2.24c0-0.8-0.4-1.33-1-1.67c0.81-0.17,1.51-0.43,2.1-0.79
			c0.33-0.17,0.65-0.42,0.96-0.72c0.07-0.07,0.14-0.14,0.21-0.22C90.35,65.01,91.06,66.16,90.87,68.19z"/>
	</g>
	<g class="st1">
		<g>
			<g>
				<path class="st3" d="M89.7,60.1c-0.02-0.21-0.05-0.4-0.09-0.58c-0.49-1.97-2.44-2.67-4.85-2.89l0.01-3.35l-2.04,0l-0.01,3.26
					c-0.54,0-1.09,0.01-1.63,0.02l0.01-3.28l-2.04-0.01l-0.01,3.35c-0.32,0.01-0.63,0.01-0.94,0.01c-0.12,0-0.24,0-0.36,0v-0.01
					l-2.81-0.01l0,2.18c0,0,0.66-0.01,1.09-0.01c0.22,0,0.38,0,0.39,0.01c0.83,0,1.09,0.49,1.17,0.9l0,3.82l-0.01,5.33h3.54
					l0.01-3.76c0,0,0.01,0,0.02,0c0,0,0,0,0.01,0c0.16,0,0.99,0.11,2.07,0.11c0.29,0,0.61-0.01,0.92-0.03
					c1.16-0.07,2.44-0.31,3.44-0.92c0.28-0.14,0.55-0.35,0.8-0.6C89.22,62.82,89.83,61.45,89.7,60.1z M82.02,63.04
					c-0.36,0-0.68-0.01-0.9-0.01l0.01-4.07c0.26,0,0.66-0.02,1.11-0.02c1.51,0,3.65,0.21,3.65,2.06
					C85.89,62.86,83.54,63.04,82.02,63.04z"/>
			</g>
		</g>
	</g>
</g>
<g id="Layer_4">
	<g>
		<path class="st2" d="M60.84,21.95l-0.48,0.7L35.74,29.2L21.05,50.02l-0.83,0.21l18.53,26.62l26.48-6.66l-0.34-0.49l14.49-21.12
			L60.84,21.95z M36.7,30.58l22.29-5.93L45.88,43.77L23.4,49.42L36.7,30.58z M39.43,75.04L22.83,51.2l23.2-5.84l16.6,23.84
			L39.43,75.04z"/>
		<path class="st2" d="M65.14,11.25v-7.3H49.43v15.71h15.71v-6.73c16.33,5.94,27.22,21.4,27.22,38.84
			c0,17.81-11.36,33.56-28.26,39.21l0.5,1.5c17.55-5.86,29.35-22.23,29.35-40.71C93.94,33.47,82.39,17.27,65.14,11.25z M63.56,18.08
			H51.01V5.53h12.55V18.08z"/>
		<path class="st2" d="M35.15,87.07C18.82,81.13,7.93,65.67,7.93,48.23c0-17.8,11.36-33.56,28.26-39.2l-0.5-1.5
			C18.14,13.39,6.34,29.75,6.34,48.23c0,18.3,11.55,34.5,28.81,40.52v7.3h15.71V80.34H35.15V87.07z M36.73,81.92h12.55v12.55H36.73
			V81.92z"/>
		<g>
			<path class="st2" d="M43.01,84.81c-1.87,0-3.39,1.52-3.39,3.39c0,1.87,1.52,3.39,3.39,3.39c1.87,0,3.39-1.52,3.39-3.39
				C46.39,86.33,44.87,84.81,43.01,84.81z"/>
			<path class="st2" d="M57.28,8.19c-1.87,0-3.39,1.52-3.39,3.39c0,1.87,1.52,3.39,3.39,3.39c1.87,0,3.39-1.52,3.39-3.39
				C60.67,9.71,59.15,8.19,57.28,8.19z"/>
		</g>
	</g>
</g>
<g id="Layer_3">
	<g>
		<g class="st4">
			<defs>
				<polygon id="SVGID_1_" class="st4" points="66.54,59.47 55.66,40.82 60.55,33.29 71.43,51.94 				"/>
			</defs>
			<clipPath id="SVGID_2_">
				<use xlink:href="#SVGID_1_"  style="overflow:visible;"/>
			</clipPath>
			<g class="st5">
				<g>
					<g>
						<g>
							<path class="st3" d="M65.36,43.31l0.04,0.28c0.05,0.4,0.07,0.75,0.05,1.04c-0.01,0.57-0.1,1.12-0.27,1.64
								c0.35,0,0.72,0.24,1.11,0.92c0.99,1.7,0.21,3.2-0.35,4.06c-0.03,0.05-0.07,0.1-0.1,0.15c-0.04,0.06-0.07,0.11-0.11,0.17
								c-0.05,0.06-0.08,0.11-0.11,0.16l-1.78,2.73l0.31,0.66l0.73,1.52l0.82-1.24c0.15-0.23,0.31-0.46,0.45-0.68l1.63,2.8
								l0.63-0.95l-1.61-2.77c0.18-0.26,0.34-0.51,0.51-0.77l1.6,2.77l0.63-0.96l-1.63-2.81c0.96-1.77,1.28-3.61-0.17-6.42
								C66.82,43.85,66.05,43.24,65.36,43.31"/>
							<path class="st3" d="M62.55,45.54c-0.11,0.17-0.21,0.32-0.28,0.42l-1.96-3.37c0.08-0.12,0.19-0.32,0.33-0.54
								c0.46-0.71,1.22-1.54,2.12-0.01C63.65,43.56,63.01,44.83,62.55,45.54 M56.93,38.87l1.62,2.78c-0.09,0.16-0.18,0.31-0.28,0.46
								c-0.04,0.06-0.07,0.11-0.11,0.16l0-0.01l-0.86,1.32l1.05,1.8c0,0,0.19-0.32,0.33-0.53c0.07-0.1,0.12-0.18,0.13-0.17
								c0.25-0.39,0.57-0.11,0.79,0.19l1.84,3.16l2.57,4.4l1.09-1.67l-1.81-3.11l0.01-0.01l0,0c0.05-0.07,0.36-0.37,0.69-0.88
								c0.09-0.14,0.18-0.29,0.27-0.47c0.32-0.6,0.6-1.4,0.61-2.37c0.02-0.25,0-0.55-0.05-0.88c-0.15-1.09-0.62-2.5-1.31-3.56
								c-0.11-0.16-0.2-0.31-0.31-0.44c-1.1-1.4-2.03-1.05-2.88-0.09l-1.61-2.77l-0.63,0.95l1.57,2.7
								c-0.17,0.25-0.33,0.52-0.49,0.78l-1.58-2.72L56.93,38.87"/>
						</g>
					</g>
				</g>
			</g>
		</g>
	</g>
</g>
</svg>
