<?xml version="1.0" encoding="utf-8"?>
<!-- Generator: Adobe Illustrator 23.0.1, SVG Export Plug-In . SVG Version: 6.00 Build 0)  -->
<svg version="1.1" xmlns="http://www.w3.org/2000/svg" xmlns:xlink="http://www.w3.org/1999/xlink" x="0px" y="0px"
	 viewBox="0 0 100 100" style="enable-background:new 0 0 100 100;" xml:space="preserve">
<style type="text/css">
	.st0{display:none;}
	.st1{display:inline;}
	.st2{fill:#0CB315;}
	.st3{enable-background:new    ;}
	.st4{clip-path:url(#SVGID_2_);}
	.st5{fill:#FFFFFF;}
</style>
<g id="Layer_1" class="st0">
	<g class="st1">
		<g id="XMLID_11_">
			<g>
				<path class="st2" d="M82.53,48.7c8.18,0.4,14.7,7.18,14.7,15.45c0,8.53-6.94,15.47-15.48,15.47c-8.53,0-15.47-6.94-15.47-15.47
					c0-8.27,6.53-15.05,14.7-15.45V24.42v-1.55h6.71v1.55h-5.17V48.7z"/>
				<path class="st2" d="M60.59,31.91V10.65h-4.12v11.63h-1.55V10.81H50.8v11.48h-1.55V10.81h-4.12v16.98h-1.55V10.81h-5.03v25.67
					h5.8v1.55h-5.8v46.09h17.73V45.3L60.59,31.91z M19.01,24.42V48.7c8.18,0.4,14.7,7.18,14.7,15.45c0,8.53-6.94,15.47-15.48,15.47
					c-8.53,0-15.47-6.94-15.47-15.47c0-8.27,6.53-15.05,14.7-15.45V24.42h-5.62v-1.55h25.16V9.26h7.35h0.77h4.9h0.77h4.89V9.11h6.44
					v13.76h18.84v1.55H62.14v7.74l-4.31,13.38v40.13H37.01V38.03v-0.77V24.42H19.01z"/>
			</g>
		</g>
	</g>
</g>
<g id="Layer_4" class="st0">
	<g class="st1">
		<path class="st2" d="M60.84,21.95l-0.48,0.7L35.74,29.2L21.05,50.02l-0.83,0.21l18.53,26.62l26.48-6.66l-0.34-0.49l14.49-21.12
			L60.84,21.95z M36.7,30.58l22.29-5.93L45.88,43.77L23.4,49.42L36.7,30.58z M39.43,75.04L22.83,51.2l23.2-5.84l16.6,23.84
			L39.43,75.04z"/>
		<path class="st2" d="M65.14,11.25v-7.3H49.43v15.71h15.71v-6.73c16.33,5.94,27.22,21.4,27.22,38.84
			c0,17.81-11.36,33.56-28.26,39.21l0.5,1.5c17.55-5.86,29.35-22.23,29.35-40.71C93.94,33.47,82.39,17.27,65.14,11.25z M63.56,18.08
			H51.01V5.53h12.55V18.08z"/>
		<path class="st2" d="M35.15,87.07C18.82,81.13,7.93,65.67,7.93,48.23c0-17.8,11.36-33.56,28.26-39.2l-0.5-1.5
			C18.14,13.39,6.34,29.75,6.34,48.23c0,18.3,11.55,34.5,28.81,40.52v7.3h15.71V80.34H35.15V87.07z M36.73,81.92h12.55v12.55H36.73
			V81.92z"/>
		<g>
			<path class="st2" d="M43.01,84.81c-1.87,0-3.39,1.52-3.39,3.39c0,1.87,1.52,3.39,3.39,3.39c1.87,0,3.39-1.52,3.39-3.39
				C46.39,86.33,44.87,84.81,43.01,84.81z"/>
			<path class="st2" d="M57.28,8.19c-1.87,0-3.39,1.52-3.39,3.39c0,1.87,1.52,3.39,3.39,3.39c1.87,0,3.39-1.52,3.39-3.39
				C60.67,9.71,59.15,8.19,57.28,8.19z"/>
		</g>
	</g>
</g>
<g id="Layer_3" class="st0">
	<g class="st1">
		<g class="st3">
			<defs>
				<polygon id="SVGID_1_" class="st3" points="66.54,59.47 55.66,40.82 60.55,33.29 71.43,51.94 				"/>
			</defs>
			<clipPath id="SVGID_2_">
				<use xlink:href="#SVGID_1_"  style="overflow:visible;"/>
			</clipPath>
			<g class="st4">
				<g>
					<g>
						<g>
							<path class="st5" d="M65.36,43.31l0.04,0.28c0.05,0.4,0.07,0.75,0.05,1.04c-0.01,0.57-0.1,1.12-0.27,1.64
								c0.35,0,0.72,0.24,1.11,0.92c0.99,1.7,0.21,3.2-0.35,4.06c-0.03,0.05-0.07,0.1-0.1,0.15c-0.04,0.06-0.07,0.11-0.11,0.17
								c-0.05,0.06-0.08,0.11-0.11,0.16l-1.78,2.73l0.31,0.66l0.73,1.52l0.82-1.24c0.15-0.23,0.31-0.46,0.45-0.68l1.63,2.8
								l0.63-0.95l-1.61-2.77c0.18-0.26,0.34-0.51,0.51-0.77l1.6,2.77l0.63-0.96l-1.63-2.81c0.96-1.77,1.28-3.61-0.17-6.42
								C66.82,43.85,66.05,43.24,65.36,43.31"/>
							<path class="st5" d="M62.55,45.54c-0.11,0.17-0.21,0.32-0.28,0.42l-1.96-3.37c0.08-0.12,0.19-0.32,0.33-0.54
								c0.46-0.71,1.22-1.54,2.12-0.01C63.65,43.56,63.01,44.83,62.55,45.54 M56.93,38.87l1.62,2.78c-0.09,0.16-0.18,0.31-0.28,0.46
								c-0.04,0.06-0.07,0.11-0.11,0.16l0-0.01l-0.86,1.32l1.05,1.8c0,0,0.19-0.32,0.33-0.53c0.07-0.1,0.12-0.18,0.13-0.17
								c0.25-0.39,0.57-0.11,0.79,0.19l1.84,3.16l2.57,4.4l1.09-1.67l-1.81-3.11l0.01-0.01l0,0c0.05-0.07,0.36-0.37,0.69-0.88
								c0.09-0.14,0.18-0.29,0.27-0.47c0.32-0.6,0.6-1.4,0.61-2.37c0.02-0.25,0-0.55-0.05-0.88c-0.15-1.09-0.62-2.5-1.31-3.56
								c-0.11-0.16-0.2-0.31-0.31-0.44c-1.1-1.4-2.03-1.05-2.88-0.09l-1.61-2.77l-0.63,0.95l1.57,2.7
								c-0.17,0.25-0.33,0.52-0.49,0.78l-1.58-2.72L56.93,38.87"/>
						</g>
					</g>
				</g>
			</g>
		</g>
	</g>
</g>
<g id="Layer_5" class="st0">
	<g class="st1">
		<g id="XMLID_12_">
			<g>
				<path class="st2" d="M73.92,19.82c10.16,0.42,18.29,8.81,18.29,19.07c0,10.26-8.14,18.65-18.29,19.07v2.4h-1.58v-2.4
					c-10.16-0.42-18.3-8.81-18.3-19.07c0-10.26,8.14-18.65,18.3-19.07v-0.03h1.58V19.82z M90.63,38.89c0-9.65-7.85-17.5-17.5-17.5
					c-9.66,0-17.51,7.85-17.51,17.5c0,9.66,7.85,17.51,17.51,17.51C82.78,56.4,90.63,48.55,90.63,38.89z"/>
				<path class="st2" d="M83.6,30.89c2.85,3.76,3.99,8.27,2.9,11.49l-0.48,1.43l-4.71-6.24l-3.42,2.58l-0.8-1.07L63.23,49.54
					l-3.15-4.18L73.94,34.9l-0.8-1.07l3.42-2.58l-4.71-6.24l1.5-0.07C76.75,24.78,80.73,27.1,83.6,30.89z"/>
				<rect x="72.33" y="63.52" class="st2" width="1.58" height="3.17"/>
				<rect x="72.33" y="13.46" class="st2" width="1.58" height="3.17"/>
				<rect x="69.83" y="9.62" class="st2" width="3.17" height="1.58"/>
				<rect x="66.93" y="66.04" class="st2" width="3.17" height="1.58"/>
				<rect x="63.5" y="9.62" class="st2" width="3.17" height="1.58"/>
				<rect x="60.59" y="66.04" class="st2" width="3.17" height="1.58"/>
				<rect x="57.16" y="9.62" class="st2" width="3.17" height="1.58"/>
				<rect x="54.26" y="66.04" class="st2" width="3.17" height="1.58"/>
				<rect x="50.82" y="9.62" class="st2" width="3.17" height="1.58"/>
				<rect x="47.92" y="66.04" class="st2" width="3.17" height="1.58"/>
				<path class="st2" d="M47.66,9.62v1.58h-2.33v63.06H27.21v7.7c3.2,0.36,5.74,2.91,6.11,6.11h11.21v1.58H33.32
					c-0.4,3.46-3.34,6.15-6.9,6.15c-3.56,0-6.5-2.69-6.9-6.15H8.32v-1.58h11.21c0.36-3.2,2.91-5.74,6.1-6.11v-7.7H7.52V3.21h37.8
					v6.41H47.66z M35.27,39.68V38.1h-17.7v1.58H35.27z M35.27,33.1v-1.58h-17.7v1.58H35.27z M35.27,26.44v-1.58h-17.7v1.58H35.27z
					 M35.27,19.87v-1.58h-17.7v1.58H35.27z M31.79,88.86c0-2.96-2.41-5.36-5.36-5.36s-5.36,2.4-5.36,5.36
					c0,2.96,2.41,5.36,5.36,5.36S31.79,91.81,31.79,88.86z M31.47,56.54c0-2.79-2.26-5.05-5.05-5.05c-2.78,0-5.05,2.27-5.05,5.05
					c0,2.78,2.27,5.05,5.05,5.05C29.21,61.59,31.47,59.33,31.47,56.54z"/>
				<path class="st2" d="M26.42,53.08c1.91,0,3.46,1.56,3.46,3.47c0,1.91-1.55,3.46-3.46,3.46s-3.46-1.55-3.46-3.46
					C22.96,54.63,24.51,53.08,26.42,53.08z"/>
			</g>
		</g>
	</g>
</g>
<g id="Layer_6">
	<g>
		<g id="XMLID_8_">
			<g>
				<polygon class="st2" points="89.67,59.86 89.67,67.82 81.23,67.82 81.23,66.34 88.19,59.86 				"/>
				<polygon class="st2" points="89.67,29.28 89.67,59.86 88.19,59.86 88.19,37.23 81.23,30.76 81.23,29.28 				"/>
				<path class="st2" d="M81.23,30.76H47.08v-1.48h13.83V16.13H17.26v64.83h43.66V67.82v-1.48h20.31v1.48H68.36v18.39
					c0,4.89-3.98,8.87-8.87,8.87h-40.8c-4.89,0-8.87-3.98-8.87-8.87V14.95c0-4.89,3.98-8.87,8.87-8.87h40.8
					c4.89,0,8.87,3.98,8.87,8.87v14.33h12.87V30.76z M45.93,90.36v-6.32H32.25v6.32H45.93z"/>
				<polygon class="st2" points="60.92,67.82 38.53,67.82 38.53,59.76 40.01,59.76 47.08,66.34 60.92,66.34 				"/>
				<rect x="33.73" y="85.52" class="st2" width="10.72" height="3.36"/>
				<polygon class="st2" points="40.01,37.33 40.01,59.76 38.53,59.76 38.53,29.28 47.08,29.28 47.08,30.76 				"/>
				<polygon class="st2" points="35.75,71.58 35.75,25.61 41.07,25.61 41.07,27.09 37.23,27.09 37.23,70.1 41.07,70.1 41.07,71.58 
									"/>
			</g>
		</g>
	</g>
</g>
<g id="Layer_2">
	<g>
		<path class="st2" d="M76.08,53.17c-0.4,4.29-3.61,5.44-8.17,5.69l-0.01,4.51l-2.72,0l0.01-4.45c-0.71,0-1.43,0-2.17-0.02L63,63.36
			l-2.72-0.01l0.01-4.52c-0.64,0-1.29-0.01-1.94-0.01l-3.54-0.01l0.38-2.24l0.16-0.97h7.73c0.14,0,0.3,0,0.48,0
			c0.15,0,0.31,0,0.48,0c2.37,0.02,6.66-0.09,6.66-2.99c0-1.07-0.53-1.77-1.33-2.22c1.08-0.23,2.01-0.58,2.8-1.05
			c0.44-0.23,0.87-0.56,1.28-0.97c0.1-0.1,0.19-0.19,0.28-0.29C75.39,48.93,76.33,50.46,76.08,53.17z"/>
	</g>
	<g>
		<g>
			<g>
				<path class="st2" d="M74.52,42.38c-0.02-0.28-0.06-0.53-0.13-0.77c-0.65-2.63-3.25-3.56-6.46-3.85l0.01-4.46l-2.72,0l-0.01,4.35
					c-0.72,0-1.45,0.01-2.17,0.02l0.01-4.37l-2.72-0.01l-0.01,4.47c-0.42,0.01-0.84,0.02-1.25,0.02c-0.16,0-0.32,0-0.47,0v-0.01
					l-3.75-0.01l0,2.9c0,0,0.87-0.01,1.46-0.01c0.29,0,0.51,0,0.52,0.01c1.1,0,1.45,0.65,1.56,1.2l0,5.09l-0.01,7.1h4.72l0.01-5.01
					c0,0,0.01,0,0.02,0c0,0,0,0,0.01,0c0.21,0,1.32,0.15,2.76,0.15c0.39,0,0.81-0.01,1.23-0.04c1.54-0.1,3.25-0.41,4.58-1.22
					c0.37-0.19,0.73-0.46,1.07-0.8C73.87,46,74.7,44.19,74.52,42.38z M64.29,46.3c-0.48,0-0.9-0.01-1.2-0.01l0.01-5.43
					c0.35,0,0.88-0.02,1.48-0.02c2.01,0,4.87,0.28,4.87,2.75C69.45,46.06,66.31,46.3,64.29,46.3z"/>
			</g>
		</g>
	</g>
</g>
</svg>
