<?xml version="1.0" encoding="utf-8"?>
<!-- Generator: Adobe Illustrator 23.0.1, SVG Export Plug-In . SVG Version: 6.00 Build 0)  -->
<svg version="1.1" xmlns="http://www.w3.org/2000/svg" xmlns:xlink="http://www.w3.org/1999/xlink" x="0px" y="0px"
	 viewBox="0 0 100 100" style="enable-background:new 0 0 100 100;" xml:space="preserve">
<style type="text/css">
	.st0{fill:#0CB315;}
	.st1{fill:#FFFFFF;}
</style>
<g id="Layer_1">
	<g>
		<g id="XMLID_11_">
			<g>
				<path class="st0" d="M82.53,48.7c8.18,0.4,14.7,7.18,14.7,15.45c0,8.53-6.94,15.47-15.48,15.47c-8.53,0-15.47-6.94-15.47-15.47
					c0-8.27,6.53-15.05,14.7-15.45V24.42v-1.55h6.71v1.55h-5.17V48.7z"/>
				<path class="st0" d="M60.59,31.91V10.65h-4.12v11.63h-1.55V10.81H50.8v11.48h-1.55V10.81h-4.12v16.98h-1.55V10.81h-5.03v25.67
					h5.8v1.55h-5.8v46.09h17.73V45.3L60.59,31.91z M19.01,24.42V48.7c8.18,0.4,14.7,7.18,14.7,15.45c0,8.53-6.94,15.47-15.48,15.47
					c-8.53,0-15.47-6.94-15.47-15.47c0-8.27,6.53-15.05,14.7-15.45V24.42h-5.62v-1.55h25.16V9.26h7.35h0.77h4.9h0.77h4.89V9.11h6.44
					v13.76h18.84v1.55H62.14v7.74l-4.31,13.38v40.13H37.01V38.03v-0.77V24.42H19.01z"/>
			</g>
		</g>
	</g>
</g>
<g id="Layer_2">
	<g>
		<path class="st1" d="M90.87,68.19c-0.3,3.22-2.71,4.08-6.13,4.27l-0.01,3.39l-2.04,0l0.01-3.34c-0.53,0-1.07,0-1.63-0.01
			l-0.01,3.35l-2.04-0.01l0.01-3.39c-0.48,0-0.97-0.01-1.46-0.01l-2.66-0.01l0.28-1.68l0.12-0.72h5.8c0.1,0,0.22,0,0.36,0
			c0.11,0,0.23,0,0.36,0c1.78,0.02,5-0.07,5-2.24c0-0.8-0.4-1.33-1-1.67c0.81-0.17,1.51-0.43,2.1-0.79
			c0.33-0.17,0.65-0.42,0.96-0.72c0.07-0.07,0.14-0.14,0.21-0.22C90.35,65.01,91.06,66.16,90.87,68.19z"/>
	</g>
	<g>
		<g>
			<g>
				<path class="st1" d="M89.7,60.1c-0.02-0.21-0.05-0.4-0.09-0.58c-0.49-1.97-2.44-2.67-4.85-2.89l0.01-3.35l-2.04,0l-0.01,3.26
					c-0.54,0-1.09,0.01-1.63,0.02l0.01-3.28l-2.04-0.01l-0.01,3.35c-0.32,0.01-0.63,0.01-0.94,0.01c-0.12,0-0.24,0-0.36,0v-0.01
					l-2.81-0.01l0,2.18c0,0,0.66-0.01,1.09-0.01c0.22,0,0.38,0,0.39,0.01c0.83,0,1.09,0.49,1.17,0.9l0,3.82l-0.01,5.33h3.54
					l0.01-3.76c0,0,0.01,0,0.02,0c0,0,0,0,0.01,0c0.16,0,0.99,0.11,2.07,0.11c0.29,0,0.61-0.01,0.92-0.03
					c1.16-0.07,2.44-0.31,3.44-0.92c0.28-0.14,0.55-0.35,0.8-0.6C89.22,62.82,89.83,61.45,89.7,60.1z M82.02,63.04
					c-0.36,0-0.68-0.01-0.9-0.01l0.01-4.07c0.26,0,0.66-0.02,1.11-0.02c1.51,0,3.65,0.21,3.65,2.06
					C85.89,62.86,83.54,63.04,82.02,63.04z"/>
			</g>
		</g>
	</g>
</g>
<g id="Layer_3">
	<g>
		<path class="st1" d="M27.07,68.02c-0.3,3.22-2.71,4.08-6.13,4.27l-0.01,3.39l-2.04,0l0.01-3.34c-0.53,0-1.07,0-1.63-0.01
			l-0.01,3.35l-2.04-0.01l0.01-3.39c-0.48,0-0.97-0.01-1.46-0.01l-2.66-0.01l0.28-1.68l0.12-0.72h5.8c0.1,0,0.22,0,0.36,0
			c0.11,0,0.23,0,0.36,0c1.78,0.02,5-0.07,5-2.24c0-0.8-0.4-1.33-1-1.67c0.81-0.17,1.51-0.43,2.1-0.79
			c0.33-0.17,0.65-0.42,0.96-0.72c0.07-0.07,0.14-0.14,0.21-0.22C26.56,64.83,27.26,65.98,27.07,68.02z"/>
	</g>
	<g>
		<g>
			<g>
				<path class="st1" d="M25.9,59.92c-0.02-0.21-0.05-0.4-0.09-0.58c-0.49-1.97-2.44-2.67-4.85-2.89l0.01-3.35l-2.04,0l-0.01,3.26
					c-0.54,0-1.09,0.01-1.63,0.02l0.01-3.28l-2.04-0.01l-0.01,3.35c-0.32,0.01-0.63,0.01-0.94,0.01c-0.12,0-0.24,0-0.36,0v-0.01
					l-2.81-0.01l0,2.18c0,0,0.66-0.01,1.09-0.01c0.22,0,0.38,0,0.39,0.01c0.83,0,1.09,0.49,1.17,0.9l0,3.82l-0.01,5.33h3.54
					l0.01-3.76c0,0,0.01,0,0.02,0c0,0,0,0,0.01,0c0.16,0,0.99,0.11,2.07,0.11c0.29,0,0.61-0.01,0.92-0.03
					c1.16-0.07,2.44-0.31,3.44-0.92c0.28-0.14,0.55-0.35,0.8-0.6C25.42,62.64,26.03,61.28,25.9,59.92z M18.23,62.86
					c-0.36,0-0.68-0.01-0.9-0.01l0.01-4.07c0.26,0,0.66-0.02,1.11-0.02c1.51,0,3.65,0.21,3.65,2.06
					C22.1,62.68,19.74,62.86,18.23,62.86z"/>
			</g>
		</g>
	</g>
</g>
</svg>
