<?xml version="1.0" encoding="utf-8"?>
<!-- Generator: Adobe Illustrator 23.0.1, SVG Export Plug-In . SVG Version: 6.00 Build 0)  -->
<svg version="1.1" xmlns="http://www.w3.org/2000/svg" xmlns:xlink="http://www.w3.org/1999/xlink" x="0px" y="0px"
	 viewBox="0 0 100 100" style="enable-background:new 0 0 100 100;" xml:space="preserve">
<style type="text/css">
	.st0{display:none;}
	.st1{display:inline;}
	.st2{fill:#0CB315;}
	.st3{enable-background:new    ;}
	.st4{clip-path:url(#SVGID_2_);}
	.st5{fill:#FFFFFF;}
</style>
<g id="Layer_1" class="st0">
	<g class="st1">
		<g id="XMLID_11_">
			<g>
				<path class="st2" d="M82.53,48.7c8.18,0.4,14.7,7.18,14.7,15.45c0,8.53-6.94,15.47-15.48,15.47c-8.53,0-15.47-6.94-15.47-15.47
					c0-8.27,6.53-15.05,14.7-15.45V24.42v-1.55h6.71v1.55h-5.17V48.7z"/>
				<path class="st2" d="M60.59,31.91V10.65h-4.12v11.63h-1.55V10.81H50.8v11.48h-1.55V10.81h-4.12v16.98h-1.55V10.81h-5.03v25.67
					h5.8v1.55h-5.8v46.09h17.73V45.3L60.59,31.91z M19.01,24.42V48.7c8.18,0.4,14.7,7.18,14.7,15.45c0,8.53-6.94,15.47-15.48,15.47
					c-8.53,0-15.47-6.94-15.47-15.47c0-8.27,6.53-15.05,14.7-15.45V24.42h-5.62v-1.55h25.16V9.26h7.35h0.77h4.9h0.77h4.89V9.11h6.44
					v13.76h18.84v1.55H62.14v7.74l-4.31,13.38v40.13H37.01V38.03v-0.77V24.42H19.01z"/>
			</g>
		</g>
	</g>
</g>
<g id="Layer_4" class="st0">
	<g class="st1">
		<path class="st2" d="M60.84,21.95l-0.48,0.7L35.74,29.2L21.05,50.02l-0.83,0.21l18.53,26.62l26.48-6.66l-0.34-0.49l14.49-21.12
			L60.84,21.95z M36.7,30.58l22.29-5.93L45.88,43.77L23.4,49.42L36.7,30.58z M39.43,75.04L22.83,51.2l23.2-5.84l16.6,23.84
			L39.43,75.04z"/>
		<path class="st2" d="M65.14,11.25v-7.3H49.43v15.71h15.71v-6.73c16.33,5.94,27.22,21.4,27.22,38.84
			c0,17.81-11.36,33.56-28.26,39.21l0.5,1.5c17.55-5.86,29.35-22.23,29.35-40.71C93.94,33.47,82.39,17.27,65.14,11.25z M63.56,18.08
			H51.01V5.53h12.55V18.08z"/>
		<path class="st2" d="M35.15,87.07C18.82,81.13,7.93,65.67,7.93,48.23c0-17.8,11.36-33.56,28.26-39.2l-0.5-1.5
			C18.14,13.39,6.34,29.75,6.34,48.23c0,18.3,11.55,34.5,28.81,40.52v7.3h15.71V80.34H35.15V87.07z M36.73,81.92h12.55v12.55H36.73
			V81.92z"/>
		<g>
			<path class="st2" d="M43.01,84.81c-1.87,0-3.39,1.52-3.39,3.39c0,1.87,1.52,3.39,3.39,3.39c1.87,0,3.39-1.52,3.39-3.39
				C46.39,86.33,44.87,84.81,43.01,84.81z"/>
			<path class="st2" d="M57.28,8.19c-1.87,0-3.39,1.52-3.39,3.39c0,1.87,1.52,3.39,3.39,3.39c1.87,0,3.39-1.52,3.39-3.39
				C60.67,9.71,59.15,8.19,57.28,8.19z"/>
		</g>
	</g>
</g>
<g id="Layer_3" class="st0">
	<g class="st1">
		<g class="st3">
			<defs>
				<polygon id="SVGID_1_" class="st3" points="66.54,59.47 55.66,40.82 60.55,33.29 71.43,51.94 				"/>
			</defs>
			<clipPath id="SVGID_2_">
				<use xlink:href="#SVGID_1_"  style="overflow:visible;"/>
			</clipPath>
			<g class="st4">
				<g>
					<g>
						<g>
							<path class="st5" d="M65.36,43.31l0.04,0.28c0.05,0.4,0.07,0.75,0.05,1.04c-0.01,0.57-0.1,1.12-0.27,1.64
								c0.35,0,0.72,0.24,1.11,0.92c0.99,1.7,0.21,3.2-0.35,4.06c-0.03,0.05-0.07,0.1-0.1,0.15c-0.04,0.06-0.07,0.11-0.11,0.17
								c-0.05,0.06-0.08,0.11-0.11,0.16l-1.78,2.73l0.31,0.66l0.73,1.52l0.82-1.24c0.15-0.23,0.31-0.46,0.45-0.68l1.63,2.8
								l0.63-0.95l-1.61-2.77c0.18-0.26,0.34-0.51,0.51-0.77l1.6,2.77l0.63-0.96l-1.63-2.81c0.96-1.77,1.28-3.61-0.17-6.42
								C66.82,43.85,66.05,43.24,65.36,43.31"/>
							<path class="st5" d="M62.55,45.54c-0.11,0.17-0.21,0.32-0.28,0.42l-1.96-3.37c0.08-0.12,0.19-0.32,0.33-0.54
								c0.46-0.71,1.22-1.54,2.12-0.01C63.65,43.56,63.01,44.83,62.55,45.54 M56.93,38.87l1.62,2.78c-0.09,0.16-0.18,0.31-0.28,0.46
								c-0.04,0.06-0.07,0.11-0.11,0.16l0-0.01l-0.86,1.32l1.05,1.8c0,0,0.19-0.32,0.33-0.53c0.07-0.1,0.12-0.18,0.13-0.17
								c0.25-0.39,0.57-0.11,0.79,0.19l1.84,3.16l2.57,4.4l1.09-1.67l-1.81-3.11l0.01-0.01l0,0c0.05-0.07,0.36-0.37,0.69-0.88
								c0.09-0.14,0.18-0.29,0.27-0.47c0.32-0.6,0.6-1.4,0.61-2.37c0.02-0.25,0-0.55-0.05-0.88c-0.15-1.09-0.62-2.5-1.31-3.56
								c-0.11-0.16-0.2-0.31-0.31-0.44c-1.1-1.4-2.03-1.05-2.88-0.09l-1.61-2.77l-0.63,0.95l1.57,2.7
								c-0.17,0.25-0.33,0.52-0.49,0.78l-1.58-2.72L56.93,38.87"/>
						</g>
					</g>
				</g>
			</g>
		</g>
	</g>
</g>
<g id="Layer_5" class="st0">
	<g class="st1">
		<g id="XMLID_12_">
			<g>
				<path class="st2" d="M73.92,19.82c10.16,0.42,18.29,8.81,18.29,19.07c0,10.26-8.14,18.65-18.29,19.07v2.4h-1.58v-2.4
					c-10.16-0.42-18.3-8.81-18.3-19.07c0-10.26,8.14-18.65,18.3-19.07v-0.03h1.58V19.82z M90.63,38.89c0-9.65-7.85-17.5-17.5-17.5
					c-9.66,0-17.51,7.85-17.51,17.5c0,9.66,7.85,17.51,17.51,17.51C82.78,56.4,90.63,48.55,90.63,38.89z"/>
				<path class="st2" d="M83.6,30.89c2.85,3.76,3.99,8.27,2.9,11.49l-0.48,1.43l-4.71-6.24l-3.42,2.58l-0.8-1.07L63.23,49.54
					l-3.15-4.18L73.94,34.9l-0.8-1.07l3.42-2.58l-4.71-6.24l1.5-0.07C76.75,24.78,80.73,27.1,83.6,30.89z"/>
				<rect x="72.33" y="63.52" class="st2" width="1.58" height="3.17"/>
				<rect x="72.33" y="13.46" class="st2" width="1.58" height="3.17"/>
				<rect x="69.83" y="9.62" class="st2" width="3.17" height="1.58"/>
				<rect x="66.93" y="66.04" class="st2" width="3.17" height="1.58"/>
				<rect x="63.5" y="9.62" class="st2" width="3.17" height="1.58"/>
				<rect x="60.59" y="66.04" class="st2" width="3.17" height="1.58"/>
				<rect x="57.16" y="9.62" class="st2" width="3.17" height="1.58"/>
				<rect x="54.26" y="66.04" class="st2" width="3.17" height="1.58"/>
				<rect x="50.82" y="9.62" class="st2" width="3.17" height="1.58"/>
				<rect x="47.92" y="66.04" class="st2" width="3.17" height="1.58"/>
				<path class="st2" d="M47.66,9.62v1.58h-2.33v63.06H27.21v7.7c3.2,0.36,5.74,2.91,6.11,6.11h11.21v1.58H33.32
					c-0.4,3.46-3.34,6.15-6.9,6.15c-3.56,0-6.5-2.69-6.9-6.15H8.32v-1.58h11.21c0.36-3.2,2.91-5.74,6.1-6.11v-7.7H7.52V3.21h37.8
					v6.41H47.66z M35.27,39.68V38.1h-17.7v1.58H35.27z M35.27,33.1v-1.58h-17.7v1.58H35.27z M35.27,26.44v-1.58h-17.7v1.58H35.27z
					 M35.27,19.87v-1.58h-17.7v1.58H35.27z M31.79,88.86c0-2.96-2.41-5.36-5.36-5.36s-5.36,2.4-5.36,5.36
					c0,2.96,2.41,5.36,5.36,5.36S31.79,91.81,31.79,88.86z M31.47,56.54c0-2.79-2.26-5.05-5.05-5.05c-2.78,0-5.05,2.27-5.05,5.05
					c0,2.78,2.27,5.05,5.05,5.05C29.21,61.59,31.47,59.33,31.47,56.54z"/>
				<path class="st2" d="M26.42,53.08c1.91,0,3.46,1.56,3.46,3.47c0,1.91-1.55,3.46-3.46,3.46s-3.46-1.55-3.46-3.46
					C22.96,54.63,24.51,53.08,26.42,53.08z"/>
			</g>
		</g>
	</g>
</g>
<g id="Layer_6" class="st0">
	<g class="st1">
		<g id="XMLID_8_">
			<g>
				<polygon class="st2" points="89.67,59.86 89.67,67.82 81.23,67.82 81.23,66.34 88.19,59.86 				"/>
				<polygon class="st2" points="89.67,29.28 89.67,59.86 88.19,59.86 88.19,37.23 81.23,30.76 81.23,29.28 				"/>
				<path class="st2" d="M81.23,30.76H47.08v-1.48h13.83V16.13H17.26v64.83h43.66V67.82v-1.48h20.31v1.48H68.36v18.39
					c0,4.89-3.98,8.87-8.87,8.87h-40.8c-4.89,0-8.87-3.98-8.87-8.87V14.95c0-4.89,3.98-8.87,8.87-8.87h40.8
					c4.89,0,8.87,3.98,8.87,8.87v14.33h12.87V30.76z M45.93,90.36v-6.32H32.25v6.32H45.93z"/>
				<polygon class="st2" points="60.92,67.82 38.53,67.82 38.53,59.76 40.01,59.76 47.08,66.34 60.92,66.34 				"/>
				<rect x="33.73" y="85.52" class="st2" width="10.72" height="3.36"/>
				<polygon class="st2" points="40.01,37.33 40.01,59.76 38.53,59.76 38.53,29.28 47.08,29.28 47.08,30.76 				"/>
				<polygon class="st2" points="35.75,71.58 35.75,25.61 41.07,25.61 41.07,27.09 37.23,27.09 37.23,70.1 41.07,70.1 41.07,71.58 
									"/>
			</g>
		</g>
	</g>
</g>
<g id="Layer_7" class="st0">
	<g class="st1">
		<g id="XMLID_3_">
			<g>
				<path class="st2" d="M77.06,19.65v-0.32c0-1.49,1.21-2.7,2.7-2.7h10.73c1.49,0,2.71,1.21,2.71,2.7v2.23
					c0,1.49-1.22,2.7-2.71,2.7H79.77c-1.49,0-2.7-1.21-2.7-2.7v-0.32H68.4c-0.42,0-0.81,0.03-1.17,0.07l-0.21-1.58
					c0.43-0.06,0.9-0.1,1.38-0.1H77.06z"/>
				<path class="st2" d="M47.35,19.68c0-6.51-7.34-11.81-16.37-11.81s-16.37,5.3-16.37,11.81v13.05h32.74V19.68z M13,19.68
					c0-7.4,8.06-13.41,17.97-13.41c9.91,0,17.97,6.01,17.97,13.41v13.05h7.21v44.15H5.79V32.73H13V19.68z"/>
				<path class="st2" d="M14.53,90.91c2.1,0,3.8-1.71,3.8-3.81s-1.7-3.81-3.8-3.81S10.72,85,10.72,87.1S12.43,90.91,14.53,90.91z
					 M47.43,90.91c2.1,0,3.81-1.71,3.81-3.81s-1.71-3.81-3.81-3.81s-3.8,1.71-3.8,3.81S45.33,90.91,47.43,90.91z M63.79,25.05V87.9
					H52.77c-0.39,2.6-2.63,4.61-5.35,4.61c-2.71,0-4.95-2.01-5.34-4.61H19.87c-0.39,2.6-2.63,4.61-5.34,4.61
					c-2.99,0-5.41-2.43-5.41-5.41c0-2.98,2.43-5.41,5.41-5.41c2.71,0,4.95,2.01,5.34,4.61h22.21c0.39-2.6,2.63-4.61,5.34-4.61
					c2.71,0,4.96,2.01,5.35,4.61h9.42V25.07c-0.02-0.29-0.05-2.17,1.33-3.65c0.84-0.91,2.01-1.47,3.49-1.67l0.21,1.58
					c-1.1,0.16-1.94,0.55-2.52,1.17c-0.99,1.06-0.92,2.49-0.91,2.5V25.05z"/>
			</g>
		</g>
	</g>
</g>
<g id="Layer_8" class="st0">
	<g class="st1">
		<g id="XMLID_10_">
			<g>
				<path class="st2" d="M40.65,17.32h5.49v5.12h4.05V6.99h1.49v15.45h5.07v-5.12h5.5V6.99h1.49V18.8h-5.5v3.64h8.36v-5.12h5.49
					V6.99h1.49V18.8h-5.49v3.64h9.99v11.95h3.13V28.9h11.81v1.49H82.68v5.49h-4.61v8.36h3.13v-5.49h11.81v1.49H82.68v5.49h-4.61
					v4.05h14.94v1.49H78.07v5.07h4.61v5.5h10.33v1.49H81.2v-5.5h-3.13v8.35h4.61v5.5h10.33v1.49H81.2v-5.5h-3.13v10.93h-10.5v2.62
					h5.49v11.81h-1.49V82.69h-5.49v-4.1h-8.36v2.62h5.5v11.81h-1.49V82.69h-5.5v-4.1h-5.07v14.42h-1.49V78.59h-4.05v4.1h-5.49v10.32
					h-1.49V81.2h5.49v-2.62h-8.35v4.1h-5.5v10.32h-1.49V81.2h5.5v-2.62H21.93V67.14H18.8v5.5H6.99v-1.49h10.33v-5.5h4.61V57.3H18.8
					v5.49H6.99v-1.49h10.33v-5.49h4.61v-5.07H6.99v-1.49h14.94v-4.05h-4.61v-5.5H6.99v-1.49H18.8v5.5h3.13v-8.36h-4.61v-5.49H6.99
					v-1.49H18.8v5.49h3.13V22.44h12.88V18.8h-5.5V6.99h1.49v10.33h5.5v5.12h8.35V18.8h-5.49V6.99h1.49V17.32z M67.26,67.78V56.05
					h-1.49v10.25H55.53v1.49H67.26z M67.26,44.98V33.25H55.53v1.49h10.24v10.24H67.26z M44.47,67.78v-1.49H34.22V56.05h-1.49v11.73
					H44.47z M44.47,34.73v-1.49H32.74v11.73h1.49V34.73H44.47z"/>
			</g>
		</g>
	</g>
</g>
<g id="Layer_9">
	<g>
		<g id="XMLID_5_">
			<g>
				<path class="st2" d="M88.55,35.9c3.45,1.88,4.73,6.22,2.85,9.68L74.05,77.37c-1.19,2.18-3.44,3.57-5.89,3.7l-0.09-1.36
					c1.98-0.1,3.81-1.22,4.78-2.99L87.1,50.59L66.11,39.14c0.37,0.4,0.71,0.84,0.99,1.32l-1.24,0.58c-1.01-1.66-2.84-2.77-4.92-2.77
					H14.35c-2.38,0-4.43,1.45-5.31,3.52l-1.26-0.53c1.08-2.56,3.62-4.36,6.57-4.36h12.46l11.17-20.47c1.88-3.45,6.22-4.72,9.68-2.84
					L88.55,35.9z M62.23,37.02L36.09,22.75L28.37,36.9h32.56C61.38,36.9,61.81,36.94,62.23,37.02z"/>
				<path class="st2" d="M68.07,79.7l0.09,1.36c-0.05,0-0.1,0.01-0.15,0.01c-0.42,3.54-3.43,6.3-7.08,6.3H14.35
					c-3.93,0-7.13-3.2-7.13-7.13V44.03c0-0.98,0.2-1.92,0.56-2.77l1.26,0.53c-0.29,0.69-0.45,1.44-0.45,2.24v5.08H66.7v-5.08
					c0-1.09-0.31-2.11-0.84-2.98l1.24-0.58c0.61,1.05,0.97,2.27,0.97,3.57V79.7z M66.7,57.77v-7.29H8.59v7.29H66.7z M62.53,76.8
					V65.45H47.32v1.37h13.84v9.98H62.53z M56.77,72.16v-1.37h-9.45v1.37H56.77z M43.22,72.16v-1.37H29.74v1.37H43.22z M43.22,66.82
					v-1.37H29.74v1.37H43.22z"/>
			</g>
		</g>
	</g>
</g>
<g id="Layer_2">
	<g>
		<path class="st5" d="M24.25,73.45c-0.2,2.18-1.83,2.76-4.15,2.89l0,2.29l-1.38,0l0.01-2.26c-0.36,0-0.73,0-1.1-0.01l0,2.27
			l-1.38,0l0.01-2.3c-0.32,0-0.66-0.01-0.99-0.01l-1.8,0l0.19-1.14l0.08-0.49h3.93c0.07,0,0.15,0,0.25,0c0.08,0,0.16,0,0.25,0
			c1.2,0.01,3.38-0.04,3.38-1.52c0-0.54-0.27-0.9-0.67-1.13c0.55-0.12,1.02-0.29,1.42-0.53c0.22-0.12,0.44-0.28,0.65-0.49
			c0.05-0.05,0.1-0.1,0.14-0.15C23.9,71.29,24.38,72.07,24.25,73.45z"/>
	</g>
	<g>
		<g>
			<g>
				<path class="st5" d="M23.46,67.96c-0.01-0.14-0.03-0.27-0.06-0.39c-0.33-1.34-1.65-1.81-3.28-1.95l0-2.27l-1.38,0l0,2.21
					c-0.36,0-0.74,0.01-1.1,0.01l0.01-2.22l-1.38,0l-0.01,2.27c-0.21,0-0.43,0.01-0.64,0.01c-0.08,0-0.16,0-0.24,0v0l-1.91,0l0,1.48
					c0,0,0.44-0.01,0.74-0.01c0.15,0,0.26,0,0.26,0.01c0.56,0,0.74,0.33,0.79,0.61l0,2.58l0,3.61h2.4l0-2.55c0,0,0,0,0.01,0
					c0,0,0,0,0,0c0.11,0,0.67,0.08,1.4,0.08c0.2,0,0.41,0,0.63-0.02c0.78-0.05,1.65-0.21,2.33-0.62c0.19-0.1,0.37-0.24,0.54-0.41
					C23.13,69.8,23.55,68.88,23.46,67.96z M18.26,69.96c-0.25,0-0.46-0.01-0.61-0.01l0.01-2.76c0.18,0,0.45-0.01,0.75-0.01
					c1.02,0,2.47,0.14,2.47,1.4C20.88,69.83,19.28,69.96,18.26,69.96z"/>
			</g>
		</g>
	</g>
</g>
</svg>
